<?xml version="1.0" standalone="no"?>
  <!DOCTYPE svg PUBLIC "-//W3C//DTD SVG 1.1//EN" "http://www.w3.org/Graphics/SVG/1.1/DTD/svg11.dtd" >
  <svg>
  <metadata>
  Created by font-carrier
  </metadata>
  <defs>
  <font id="DrukCyr-Bold" horiz-adv-x="990" vert-adv-y="990" >
    <font-face
      
      font-family="Druk Cyr"
      
      font-weight="400"
      
      font-stretch="normal"
      
      units-per-em="1000"
      
      ascent="1054"
      
      descent="-215"
      
    />
      <missing-glyph />

      

      
      <glyph glyph-name="uni21" unicode="&#x21;" d="M141 144L141 0L22 0L22 144L141 144M9 744L154 744L107 167L56 167L9 744Z"  horiz-adv-x="164" vert-adv-y="1000"  />

      
      <glyph glyph-name="uni22" unicode="&#x22;" d="M106 744L106 553L15 553L15 744L106 744M217 744L217 553L126 553L126 744L217 744Z"  horiz-adv-x="232" vert-adv-y="1000"  />

      
      <glyph glyph-name="uni23" unicode="&#x23;" d="M108 748L199 748L181 538L216 538L234 748L326 748L307 538L367 538L360 440L299 440L291 346L351 346L344 248L282 248L261 0L171 0L192 248L156 248L135 0L45 0L66 248L5 248L14 346L74 346L82 440L21 440L30 538L90 538L108 748M172 440L164 346L200 346L208 440L172 440Z"  horiz-adv-x="372" vert-adv-y="1000"  />

      
      <glyph glyph-name="uni24" unicode="&#x24;" d="M157-72L157-11Q10-6 10 145L10 278L133 278L133 143Q133 106 157 98L157 307L83 383Q43 424 28 469Q13 514 13 578L13 601Q13 676 51.50 713.50Q90 751 157 753L157 812L192 812L192 753Q265 751 296.50 716Q328 681 328 607L328 506L212 506L212 608Q212 639 192 645L192 457L258 389Q311 331 328.50 294Q346 257 346 185L346 158Q346 80 305 35.50Q264-9 192-11L192-72L157-72M220 152L220 181Q220 234 192 270L192 96Q220 105 220 152M136 607L136 581Q136 546 139.50 529.50Q143 513 157 496L157 645Q136 639 136 607Z"  horiz-adv-x="356" vert-adv-y="1000"  />

      
      <glyph glyph-name="uni25" unicode="&#x25;" d="M265 102L265 230Q265 283 291.50 310.50Q318 338 364 338L384 338Q430 338 456 309.50Q482 281 482 230L482 102Q482 51 456 23Q430-5 384-5L364-5Q318-5 291.50 22Q265 49 265 102M12 515L12 643Q12 696 38.50 723Q65 750 111 750L131 750Q177 750 203 722Q229 694 229 643L229 515Q229 464 203 435.50Q177 407 131 407L111 407Q65 407 38.50 434.50Q12 462 12 515M346 744L429 744L150 0L67 0L346 744M137 508L137 651Q137 671 120 671Q104 671 104 651L104 508Q104 488 120 488Q137 488 137 508M373 75Q390 75 390 95L390 238Q390 258 373 258Q357 258 357 238L357 95Q357 75 373 75Z"  horiz-adv-x="494" vert-adv-y="1000"  />

      
      <glyph glyph-name="uni26" unicode="&#x26;" d="M12 194L12 230Q12 295 36.50 339.50Q61 384 108 419Q64 515 64 591L64 619Q64 652 73.50 680Q83 708 113.50 730.50Q144 753 192 753L214 753Q282 753 310 718.50Q338 684 338 619L338 606Q338 545 317.50 506.50Q297 468 237 418L319 238Q325 286 325 445L437 445Q432 221 391 116Q413 99 452 92Q445 69 440 43Q424-17 424-18Q352-7 318 22Q283-11 217-11L204-11Q113-11 62.50 42Q12 95 12 194M225 99Q247 99 260 106L150 331Q137 296 137 255L137 229Q137 99 225 99M178 612L178 596Q178 550 202 496Q219 519 224 539.50Q229 560 229 597L229 612Q229 637 224 646Q219 655 204 655Q189 655 183.50 645.50Q178 636 178 612Z"  horiz-adv-x="453" vert-adv-y="1000"  />

      
      <glyph glyph-name="uni27" unicode="&#x27;" d="M108 744L108 553L15 553L15 744L108 744Z"  horiz-adv-x="123" vert-adv-y="1000"  />

      
      <glyph glyph-name="uni28" unicode="&#x28;" d="M27 344Q27 596 136 808L214 808Q144 617 144 347Q144 90 217-131L139-131Q27 74 27 344Z"  horiz-adv-x="214" vert-adv-y="1000"  />

      
      <glyph glyph-name="uni29" unicode="&#x29;" d="M70 347Q70 482 50 604.50Q30 727 0 808L77 808Q187 592 187 344Q187 84 74-131L-3-131Q70 103 70 347Z"  horiz-adv-x="214" vert-adv-y="1000"  />

      
      <glyph glyph-name="uni2a" unicode="&#x2a;" d="M146 678L196 718L232 657L171 632L231 605L197 546L146 587L154 521L82 521L91 587L41 546L5 607L65 632L4 657L40 718L90 678L82 744L154 744L146 678Z"  horiz-adv-x="237" vert-adv-y="1000"  />

      
      <glyph glyph-name="uni2b" unicode="&#x2b;" d="M123 134L123 255L15 255L15 346L123 346L123 468L221 468L221 346L329 346L329 255L221 255L221 134L123 134Z"  horiz-adv-x="344" vert-adv-y="1000"  />

      
      <glyph glyph-name="uni2c" unicode="&#x2c;" d="M103-95L36-95Q60-39 61 0L15 0L15 144L134 144L134 38Q134-30 103-95Z"  horiz-adv-x="149" vert-adv-y="1000"  />

      
      <glyph glyph-name="uni2d" unicode="&#x2d;" d="M15 359L168 359L168 238L15 238L15 359Z"  horiz-adv-x="183" vert-adv-y="1000"  />

      
      <glyph glyph-name="uni2e" unicode="&#x2e;" d="M134 144L134 0L15 0L15 144L134 144Z"  horiz-adv-x="149" vert-adv-y="1000"  />

      
      <glyph glyph-name="uni2f" unicode="&#x2f;" d="M217 808L87-131L-8-131L123 808L217 808Z"  horiz-adv-x="219" vert-adv-y="1000"  />

      
      <glyph glyph-name="uni30" unicode="&#x30;" d="M356 564L356 165Q356 83 315 36Q274-11 200-11L170-11Q94-11 56 35.50Q18 82 18 165L18 563Q18 753 171 753L201 753Q356 753 356 564M216 165L216 577Q216 601 209.50 612Q203 623 186 623Q156 623 156 577L156 165Q156 122 185 122Q216 122 216 165Z"  horiz-adv-x="374" vert-adv-y="1000"  />

      
      <glyph glyph-name="uni31" unicode="&#x31;" d="M87 547L9 547L9 661Q62 661 83.50 682.50Q105 704 109 744L220 744L220 0L87 0L87 547Z"  horiz-adv-x="243" vert-adv-y="1000"  />

      
      <glyph glyph-name="uni32" unicode="&#x32;" d="M202 598Q202 632 177 632Q152 632 152 598L152 483L27 483L27 614Q27 673 60 713Q93 753 163 753L190 753Q263 753 302 717Q341 681 341 610L341 568Q341 500 330.50 461.50Q320 423 276 366Q263 349 203 271Q164 220 145.50 187.50Q127 155 126 149Q125 143 125 129L218 129L218 256L348 256L348 0L11 0L11 76Q11 146 27 194Q43 242 101 339L165 445Q202 507 202 553L202 598Z"  horiz-adv-x="363" vert-adv-y="1000"  />

      
      <glyph glyph-name="uni33" unicode="&#x33;" d="M143 515L21 515L21 611Q21 670 52.50 711.50Q84 753 153 753L181 753Q254 753 290.50 714.50Q327 676 327 610L327 527Q327 440 279 414Q334 396 334 329L334 143Q334 71 294.50 30Q255-11 186-11L158-11Q82-11 47.50 27Q13 65 13 123L13 273L143 273L143 155Q143 120 171 120Q198 120 198 155L198 300Q198 317 193.50 323.50Q189 330 173 330L104 330L104 463L166 463Q183 463 188.50 470Q194 477 194 496L194 598Q194 618 188.50 625Q183 632 168 632Q155 632 149 625Q143 618 143 598L143 515Z"  horiz-adv-x="350" vert-adv-y="1000"  />

      
      <glyph glyph-name="uni34" unicode="&#x34;" d="M161 293L161 474Q115 332 100 293L161 293M7 166L7 279Q106 550 174 749L291 749L291 293L360 293L360 166L291 166L291 0L161 0L161 166L7 166Z"  horiz-adv-x="367" vert-adv-y="1000"  />

      
      <glyph glyph-name="uni35" unicode="&#x35;" d="M153 331L22 331L22 744L327 744L327 615L150 615L150 468Q190 538 241 538L253 538Q295 538 315.50 509Q336 480 336 441L336 134Q336 73 300 31Q264-11 195-11L155-11Q80-11 47 29Q14 69 14 121L14 273L147 273L147 150Q147 115 172 115Q197 115 197 150L197 375Q197 388 196 394Q195 400 190 406Q185 412 174 412Q153 412 153 376L153 331Z"  horiz-adv-x="353" vert-adv-y="1000"  />

      
      <glyph glyph-name="uni36" unicode="&#x36;" d="M258 479L266 479Q311 479 333.50 450Q356 421 356 385L356 139Q356 79 315.50 34.50Q275-10 204-10L174-10Q98-10 58 31Q18 72 18 135L18 596Q18 669 56.50 711.50Q95 754 172 754L200 754Q268 754 305 718Q342 682 342 631L342 519L205 519L205 602Q205 617 200 624Q195 631 181 631Q156 631 156 602L156 413Q157 414 163.50 422Q170 430 173 433Q176 436 183 443.50Q190 451 195 454.50Q200 458 208 463.50Q216 469 223 472Q230 475 239.50 477Q249 479 258 479M187 116Q217 116 217 155L217 326Q217 363 187 363Q156 363 156 327L156 155Q156 116 187 116Z"  horiz-adv-x="372" vert-adv-y="1000"  />

      
      <glyph glyph-name="uni37" unicode="&#x37;" d="M13 744L319 744L319 624Q312 581 275 382Q243 203 243 89L243 0L83 0L83 76Q83 178 137 341Q214 574 214 624L135 624L135 515L13 515L13 744Z"  horiz-adv-x="329" vert-adv-y="1000"  />

      
      <glyph glyph-name="uni38" unicode="&#x38;" d="M340 612L340 505Q340 437 288 406Q347 378 347 301L347 143Q347 73 308.50 31.50Q270-10 195-11L167-11Q16-11 16 144L16 301Q16 374 75 406Q23 434 23 505L23 614Q23 673 58 713Q93 753 168 753L191 753Q265 753 302.50 714Q340 675 340 612M209 149L209 295Q209 332 181 332Q166 332 160 323.50Q154 315 154 295L154 149Q154 116 181 116Q209 116 209 149M207 486L207 604Q207 636 181 636Q156 636 156 604L156 487Q156 455 182 455Q207 455 207 486Z"  horiz-adv-x="363" vert-adv-y="1000"  />

      
      <glyph glyph-name="uni39" unicode="&#x39;" d="M117 263L109 263Q64 263 40 297Q16 331 16 376L16 608Q16 667 52.50 710Q89 753 163 753L193 753Q273 753 313.50 712.50Q354 672 354 611L354 131Q354 68 317 28.50Q280-11 206-11L176-11Q101-11 65.50 20.50Q30 52 30 105L30 223L167 223L167 140Q167 111 192 111Q215 111 215 140L215 329Q164 263 117 263M184 627Q154 627 154 587L154 416Q154 378 184 378Q215 378 215 415L215 587Q215 627 184 627Z"  horiz-adv-x="372" vert-adv-y="1000"  />

      
      <glyph glyph-name="uni3a" unicode="&#x3a;" d="M136 144L136 0L17 0L17 144L136 144M136 437L136 295L17 295L17 437L136 437Z"  horiz-adv-x="153" vert-adv-y="1000"  />

      
      <glyph glyph-name="uni3b" unicode="&#x3b;" d="M105-96L38-96Q62-40 63 0L17 0L17 144L136 144L136 38Q136-31 105-96M136 437L136 295L17 295L17 437L136 437Z"  horiz-adv-x="153" vert-adv-y="1000"  />

      
      <glyph glyph-name="uni3c" unicode="&#x3c;" d="M12 257L12 344L275 449L275 355L120 300L275 247L275 152L12 257Z"  horiz-adv-x="290" vert-adv-y="1000"  />

      
      <glyph glyph-name="uni3d" unicode="&#x3d;" d="M17 287L318 287L318 204L17 204L17 287M17 398L318 398L318 314L17 314L17 398Z"  horiz-adv-x="335" vert-adv-y="1000"  />

      
      <glyph glyph-name="uni3e" unicode="&#x3e;" d="M15 355L15 449L277 344L277 257L15 152L15 247L169 301L15 355Z"  horiz-adv-x="289" vert-adv-y="1000"  />

      
      <glyph glyph-name="uni3f" unicode="&#x3f;" d="M201 167L97 167L97 295Q97 332 103.50 353Q110 374 131 407L166 463Q187 497 187 548L187 597Q187 617 181.50 624.50Q176 632 162 632Q147 632 142 624Q137 616 137 597L137 483L13 483L13 601Q13 673 41.50 713Q70 753 149 753L176 753Q253 753 286.50 715.50Q320 678 320 608L320 556Q320 509 311 477.50Q302 446 275 411L226 344Q210 322 205.50 307.50Q201 293 201 259L201 167M209 144L209 0L90 0L90 144L209 144Z"  horiz-adv-x="333" vert-adv-y="1000"  />

      
      <glyph glyph-name="uni40" unicode="&#x40;" d="M457 25L507-34Q497-49 482-64.50Q467-80 441.50-98.50Q416-117 378.50-128.50Q341-140 299-140L289-140Q250-140 217.50-134Q185-128 146-104.50Q107-81 80.50-41.50Q54-2 35.50 71.50Q17 145 17 245L17 356Q17 535 88 632.50Q159 730 294 730L312 730Q566 730 566 425L566 321Q566 214 547 149Q528 84 499.50 61Q471 38 430 38L423 38Q347 38 321 105Q285 38 230 38L225 38Q193 38 169 68.50Q145 99 147 153L160 446Q162 487 182.50 514.50Q203 542 237 542L243 542Q284 542 319 488L321 538L444 538L422 136Q422 118 435 118Q481 118 481 318L481 423Q481 550 438.50 601.50Q396 653 312 653L294 653Q204 653 155 579.50Q106 506 105 354L105 247Q105 166 118 107Q131 48 149.50 16.50Q168-15 195-33.50Q222-52 243-56.50Q264-61 289-61L299-61Q356-61 396-33.50Q436-6 457 25M303 166L316 415Q317 434 313.50 441Q310 448 299 448Q289 448 285.50 440.50Q282 433 281 415L268 165Q267 145 270 138Q273 131 284 131Q301 131 303 166Z"  horiz-adv-x="583" vert-adv-y="1000"  />

      
      <glyph glyph-name="uni41" unicode="&#x41;" d="M222 0L208 125L128 125L116 0L-2 0L92 744L250 744L351 0L222 0M167 508L141 253L195 253L167 508Z"  horiz-adv-x="349" vert-adv-y="1000"  />

      
      <glyph glyph-name="uni42" unicode="&#x42;" d="M21 0L21 744L222 744Q290 744 320.50 714Q351 684 351 611L351 512Q351 470 331.50 442.50Q312 415 288 408Q362 387 362 291L362 167Q362 80 332 40Q302 0 240 0L21 0M186 333L154 333L154 118L191 118Q210 118 217.50 127.50Q225 137 225 167L225 288Q225 312 216.50 322.50Q208 333 186 333M186 630L154 630L154 453L184 453Q202 453 211 462.50Q220 472 220 497L220 590Q220 630 186 630Z"  horiz-adv-x="376" vert-adv-y="1000"  />

      
      <glyph glyph-name="uni43" unicode="&#x43;" d="M224 164L224 328L356 328L356 160Q356 85 319.50 36.50Q283-12 202-12L175-12Q87-12 52.50 36Q18 84 18 164L18 584Q18 659 55.50 706Q93 753 175 753L202 753Q248 753 279.50 740Q311 727 327 702.50Q343 678 349.50 651Q356 624 356 589L356 464L224 464L224 584Q224 627 190 627Q157 627 157 584L157 164Q157 119 191 119Q224 119 224 164Z"  horiz-adv-x="372" vert-adv-y="1000"  />

      
      <glyph glyph-name="uni44" unicode="&#x44;" d="M21 0L21 744L210 744Q286 744 320.50 706.50Q355 669 355 585L355 165Q355 82 321.50 41Q288 0 210 0L21 0M154 626L154 124L180 124Q202 124 210.50 136Q219 148 219 176L219 576Q219 603 211 614.50Q203 626 184 626L154 626Z"  horiz-adv-x="374" vert-adv-y="1000"  />

      
      <glyph glyph-name="uni45" unicode="&#x45;" d="M21 744L299 744L299 613L154 613L154 451L268 451L268 317L154 317L154 134L306 134L306 0L21 0L21 744Z"  horiz-adv-x="315" vert-adv-y="1000"  />

      
      <glyph glyph-name="uni46" unicode="&#x46;" d="M21 0L21 744L306 744L306 614L154 614L154 452L266 452L266 318L154 318L154 0L21 0Z"  horiz-adv-x="316" vert-adv-y="1000"  />

      
      <glyph glyph-name="uni47" unicode="&#x47;" d="M149-10L139-10Q83-10 50.50 32Q18 74 18 136L18 579Q18 655 55 704Q92 753 173 753L200 753Q247 753 279 739Q311 725 326.50 699Q342 673 348 645Q354 617 354 580L354 498L224 498L224 581Q224 606 216.50 617Q209 628 190 628Q157 628 157 581L157 167Q157 119 193 119Q232 119 232 165L232 325L183 325L183 450L360 450L360 0L279 0Q269 42 259 71Q250 55 244.50 46.50Q239 38 225 22Q211 6 191.50-2Q172-10 149-10Z"  horiz-adv-x="378" vert-adv-y="1000"  />

      
      <glyph glyph-name="uni48" unicode="&#x48;" d="M154 314L154 0L21 0L21 744L154 744L154 460L224 460L224 744L357 744L357 0L224 0L224 314L154 314Z"  horiz-adv-x="378" vert-adv-y="1000"  />

      
      <glyph glyph-name="uni49" unicode="&#x49;" d="M154 744L154 0L21 0L21 744L154 744Z"  horiz-adv-x="175" vert-adv-y="1000"  />

      
      <glyph glyph-name="uni4a" unicode="&#x4a;" d="M13 327L141 327L141 155Q141 122 167 122L171 122Q196 122 196 155L196 744L334 744L334 151Q334 74 297 33Q260-8 193-8L149-8Q81-8 47 26.50Q13 61 13 137L13 327Z"  horiz-adv-x="354" vert-adv-y="1000"  />

      
      <glyph glyph-name="uni4b" unicode="&#x4b;" d="M154 315L154 0L21 0L21 744L154 744L154 458L241 744L372 744L267 406L383 0L243 0L154 315Z"  horiz-adv-x="376" vert-adv-y="1000"  />

      
      <glyph glyph-name="uni4c" unicode="&#x4c;" d="M21 744L154 744L154 134L295 134L295 0L21 0L21 744Z"  horiz-adv-x="304" vert-adv-y="1000"  />

      
      <glyph glyph-name="uni4d" unicode="&#x4d;" d="M21 0L21 744L185 744L236 368L287 744L440 744L440 0L320 0L320 440L254 0L204 0L137 440L137 0L21 0Z"  horiz-adv-x="461" vert-adv-y="1000"  />

      
      <glyph glyph-name="uni4e" unicode="&#x4e;" d="M21 744L146 744L237 364L237 744L355 744L355 0L242 0L139 408L139 0L21 0L21 744Z"  horiz-adv-x="376" vert-adv-y="1000"  />

      
      <glyph glyph-name="uni4f" unicode="&#x4f;" d="M367 564L367 170Q367 87 325 38Q283-11 209-11L179-11Q100-11 59 35.50Q18 82 18 170L18 563Q18 753 178 753L208 753Q367 753 367 564M228 166L228 574Q228 623 193 623Q157 623 157 574L157 166Q157 122 194 122Q228 122 228 166Z"  horiz-adv-x="385" vert-adv-y="1000"  />

      
      <glyph glyph-name="uni50" unicode="&#x50;" d="M217 298L154 298L154 0L21 0L21 744L210 744Q290 744 318.50 708Q347 672 347 597L347 448Q347 298 217 298M154 629L154 419L179 419Q200 419 206.50 429.50Q213 440 213 461L213 585Q213 608 206.50 618.50Q200 629 179 629L154 629Z"  horiz-adv-x="361" vert-adv-y="1000"  />

      
      <glyph glyph-name="uni51" unicode="&#x51;" d="M367 564L367 170Q367 99 336.50 53Q306 7 250-6L314-155L148-155L148-9Q84 0 51 46Q18 92 18 170L18 563Q18 753 178 753L208 753Q367 753 367 564M228 166L228 574Q228 623 193 623Q157 623 157 574L157 166Q157 122 194 122Q228 122 228 166Z"  horiz-adv-x="385" vert-adv-y="1000"  />

      
      <glyph glyph-name="uni52" unicode="&#x52;" d="M154 629L154 441L180 441Q201 441 209 450.50Q217 460 217 486L217 587Q217 612 210.50 620.50Q204 629 184 629L154 629M154 318L154 0L21 0L21 744L231 744Q353 744 353 620L353 501Q353 427 294 401Q315 393 333 371.50Q351 350 351 313L351 60Q351 25 362 5L362 0L229 0Q217 14 217 57L217 274Q217 300 209.50 309Q202 318 182 318L154 318Z"  horiz-adv-x="369" vert-adv-y="1000"  />

      
      <glyph glyph-name="uni53" unicode="&#x53;" d="M168 753L195 753Q272 753 305 718Q338 683 338 607L338 507L210 507L210 600Q210 639 181 639Q152 639 152 599L152 582Q152 532 193 486L269 401Q317 347 333.50 304.50Q350 262 350 210L350 175Q350 88 309.50 39.50Q269-9 188-9L162-9Q10-9 10 145L10 279L141 279L141 160Q141 115 175 115Q208 115 208 169L208 183Q208 225 200.50 246.50Q193 268 165 299L88 384Q48 427 32.50 471Q17 515 17 573L17 605Q17 676 57 714.50Q97 753 168 753Z"  horiz-adv-x="359" vert-adv-y="1000"  />

      
      <glyph glyph-name="uni54" unicode="&#x54;" d="M8 744L331 744L331 613L236 613L236 0L103 0L103 613L8 613L8 744Z"  horiz-adv-x="339" vert-adv-y="1000"  />

      
      <glyph glyph-name="uni55" unicode="&#x55;" d="M20 173L20 744L157 744L157 168Q157 122 190 122Q222 122 222 168L222 744L359 744L359 173Q359 82 318.50 35.50Q278-11 205-11L172-11Q20-11 20 173Z"  horiz-adv-x="379" vert-adv-y="1000"  />

      
      <glyph glyph-name="uni56" unicode="&#x56;" d="M98 0L-1 744L137 744L186 245L235 744L362 744L267 0L98 0Z"  horiz-adv-x="361" vert-adv-y="1000"  />

      
      <glyph glyph-name="uni57" unicode="&#x57;" d="M227 744L354 744L401 272L445 744L573 744L478 0L327 0L288 409L249 0L92 0L-1 744L137 744L179 267L227 744Z"  horiz-adv-x="572" vert-adv-y="1000"  />

      
      <glyph glyph-name="uni58" unicode="&#x58;" d="M91 398L10 744L144 744L185 521L225 744L351 744L272 398L365 0L231 0L180 258L127 0L-3 0L91 398Z"  horiz-adv-x="362" vert-adv-y="1000"  />

      
      <glyph glyph-name="uni59" unicode="&#x59;" d="M337 744L237 293L237 0L104 0L104 288L-6 744L127 744L172 480L217 744L337 744Z"  horiz-adv-x="331" vert-adv-y="1000"  />

      
      <glyph glyph-name="uni5a" unicode="&#x5a;" d="M20 744L314 744L314 626L152 130L325 130L325 0L9 0L9 120L171 616L20 616L20 744Z"  horiz-adv-x="334" vert-adv-y="1000"  />

      
      <glyph glyph-name="uni5b" unicode="&#x5b;" d="M194 808L194 713L140 713L140-35L194-35L194-131L34-131L34 808L194 808Z"  horiz-adv-x="200" vert-adv-y="1000"  />

      
      <glyph glyph-name="uni5c" unicode="&#x5c;" d="M133-131L2 808L96 808L227-131L133-131Z"  horiz-adv-x="219" vert-adv-y="1000"  />

      
      <glyph glyph-name="uni5d" unicode="&#x5d;" d="M6-131L6-35L60-35L60 713L6 713L6 808L166 808L166-131L6-131Z"  horiz-adv-x="200" vert-adv-y="1000"  />

      
      <glyph glyph-name="uni5e" unicode="&#x5e;" d="M169 744L235 433L146 433L117 597L90 433L2 433L67 744L169 744Z"  horiz-adv-x="237" vert-adv-y="1000"  />

      
      <glyph glyph-name="uni5f" unicode="&#x5f;" d="M2-115L2-20L331-20L331-115L2-115Z"  horiz-adv-x="333" vert-adv-y="1000"  />

      
      <glyph glyph-name="uni60" unicode="&#x60;" d="M203 700L244 564L142 564L97 700L203 700Z"  horiz-adv-x="342" vert-adv-y="1000"  />

      
      <glyph glyph-name="uni61" unicode="&#x61;" d="M182 134L182 265Q158 252 149 240Q137 225 137 199L137 134Q137 102 158 102Q182 102 182 134M14 88L14 205Q14 281 70 315Q83 324 125 343.50Q167 363 174 368Q182 373 182 388L182 417Q182 434 177 440Q172 446 160 446L156 446Q134 446 134 417L134 364L20 364L20 438Q20 482 48 513Q76 544 146 544L169 544Q245 544 275 513.50Q305 483 305 426L305 129Q305 120 308.50 117Q312 114 324 114L338 114L338 0L219 0Q182 0 182 61Q150-5 91-5L87-5Q52-5 33 22.50Q14 50 14 88Z"  horiz-adv-x="339" vert-adv-y="1000"  />

      
      <glyph glyph-name="uni62" unicode="&#x62;" d="M18 744L146 744L146 478Q156 498 181 521Q206 544 237 544L243 544Q280 544 301.50 516Q323 488 323 449L323 111Q323 65 294.50 28Q266-9 224-9L222-9Q196-9 175 5.50Q154 20 144.50 33.50Q135 47 121 72Q108 17 108 0L18 0L18 744M146 399L146 137Q146 102 170 102Q194 102 194 135L194 399Q194 434 169 434Q146 434 146 399Z"  horiz-adv-x="340" vert-adv-y="1000"  />

      
      <glyph glyph-name="uni63" unicode="&#x63;" d="M190 241L309 241L309 125Q309 65 276 27Q243-11 177-11L156-11Q84-11 49.50 27Q15 65 15 129L15 400Q15 548 154 548L179 548Q309 548 309 418L309 329L191 329L191 405Q191 443 167 443Q144 443 144 406L144 135Q144 102 166 102Q190 102 190 133L190 241Z"  horiz-adv-x="322" vert-adv-y="1000"  />

      
      <glyph glyph-name="uni64" unicode="&#x64;" d="M198 744L326 744L326 0L198 0L198 60Q158-11 109-11L107-11Q68-11 42.50 22.50Q17 56 17 104L17 437Q17 479 38.50 511.50Q60 544 97 544L102 544Q154 544 198 478L198 744M198 143L198 392Q198 434 171 434Q146 434 146 397L146 138Q146 101 171 101Q198 101 198 143Z"  horiz-adv-x="344" vert-adv-y="1000"  />

      
      <glyph glyph-name="uni65" unicode="&#x65;" d="M150 548L174 548Q309 548 309 411L309 252L138 252L138 135Q138 102 163 102Q186 102 186 135L186 215L309 215L309 117Q309 56 271 23Q233-10 174-10L150-10Q88-10 51.50 23Q15 56 15 117L15 413Q15 472 48.50 510Q82 548 150 548M138 413L138 348L190 348L190 413Q190 449 164 449Q148 449 143 440.50Q138 432 138 413Z"  horiz-adv-x="323" vert-adv-y="1000"  />

      
      <glyph glyph-name="uni66" unicode="&#x66;" d="M265 744L265 631L216 631Q204 631 200 626Q196 621 196 608L196 538L265 538L265 419L196 419L196 0L69 0L69 419L6 419L6 538L69 538L69 670Q69 700 89.50 722Q110 744 151 744L265 744Z"  horiz-adv-x="274" vert-adv-y="1000"  />

      
      <glyph glyph-name="uni67" unicode="&#x67;" d="M196-65L196 60Q158-10 109-10Q69-10 43 19Q17 48 17 95L17 416Q17 474 39 507.50Q61 541 102 541L103 541Q156 541 198 473L198 538L324 538L324-74Q324-125 292-160Q260-195 179-195L161-195Q22-195 22-97L22-25L145-25L145-69Q145-81 149.50-86.50Q154-92 167-92L172-92Q186-92 191-86Q196-80 196-65M196 129L196 399Q196 433 171 433Q147 433 147 400L147 128Q147 96 171 96Q196 96 196 129Z"  horiz-adv-x="342" vert-adv-y="1000"  />

      
      <glyph glyph-name="uni68" unicode="&#x68;" d="M18 0L18 744L146 744L146 476Q188 540 242 540L247 540Q283 540 304.50 516.50Q326 493 326 456L326 0L197 0L197 398Q197 428 172 428Q146 428 146 394L146 0L18 0Z"  horiz-adv-x="344" vert-adv-y="1000"  />

      
      <glyph glyph-name="uni69" unicode="&#x69;" d="M146 538L146 0L18 0L18 538L146 538M146 690L146 564L18 564L18 690L146 690Z"  horiz-adv-x="164" vert-adv-y="1000"  />

      
      <glyph glyph-name="uni6a" unicode="&#x6a;" d="M147 690L147 564L19 564L19 690L147 690M-51-69L1-69Q11-69 15-64.50Q19-60 19-48L19 538L147 538L147-116Q147-146 127-167Q107-188 73-188L-51-188L-51-69Z"  horiz-adv-x="165" vert-adv-y="1000"  />

      
      <glyph glyph-name="uni6b" unicode="&#x6b;" d="M146 351L221 538L343 538L248 312L350 0L223 0L146 239L146 0L18 0L18 744L146 744L146 351Z"  horiz-adv-x="346" vert-adv-y="1000"  />

      
      <glyph glyph-name="uni6c" unicode="&#x6c;" d="M146 744L146 0L18 0L18 744L146 744Z"  horiz-adv-x="164" vert-adv-y="1000"  />

      
      <glyph glyph-name="uni6d" unicode="&#x6d;" d="M18 0L18 538L145 538L145 475Q191 542 237 542L241 542Q272 542 293 523Q314 504 320 476Q362 542 416 542L421 542Q458 542 478 518Q498 494 498 456L498 0L370 0L370 392Q370 428 346 428Q324 428 322 400L322 0L194 0L194 392Q194 411 189.50 419.50Q185 428 169 428Q146 428 146 392L146 0L18 0Z"  horiz-adv-x="516" vert-adv-y="1000"  />

      
      <glyph glyph-name="uni6e" unicode="&#x6e;" d="M18 0L18 538L145 538L145 473Q190 540 242 540L249 540Q289 540 307.50 511Q326 482 326 450L326 0L197 0L197 396Q197 428 172 428Q146 428 146 392L146 0L18 0Z"  horiz-adv-x="344" vert-adv-y="1000"  />

      
      <glyph glyph-name="uni6f" unicode="&#x6f;" d="M15 142L15 397Q15 469 52 508.50Q89 548 155 548L185 548Q252 548 289 509Q326 470 326 399L326 144Q326 77 288 33.50Q250-10 185-10L155-10Q84-10 49.50 31.50Q15 73 15 142M144 400L144 144Q144 106 170 106Q197 106 197 144L197 400Q197 437 170 437Q144 437 144 400Z"  horiz-adv-x="341" vert-adv-y="1000"  />

      
      <glyph glyph-name="uni70" unicode="&#x70;" d="M18 538L146 538L146 479Q186 544 240 544L242 544Q327 544 327 429L327 108Q327 55 300.50 22Q274-11 237-11L235-11Q184-11 146 47L146-188L18-188L18 538M146 402L146 130Q146 94 171 94Q196 94 196 129L196 402Q196 436 171 436Q146 436 146 402Z"  horiz-adv-x="344" vert-adv-y="1000"  />

      
      <glyph glyph-name="uni71" unicode="&#x71;" d="M238 538L326 538L326-188L198-188L198 59Q185 33 162 11.50Q139-10 108-10L102-10Q65-10 41 24.50Q17 59 17 103L17 413Q17 470 40 507Q63 544 116 544L124 544Q158 544 180 521.50Q202 499 222 460Q233 485 238 538M198 135L198 398Q198 434 171 434Q147 434 147 398L147 131Q147 96 172 96Q198 96 198 135Z"  horiz-adv-x="344" vert-adv-y="1000"  />

      
      <glyph glyph-name="uni72" unicode="&#x72;" d="M145 538L145 471Q154 496 175 518.50Q196 541 230 541L236 541Q297 541 297 475L297 280L178 280L178 403Q178 418 174.50 423.50Q171 429 162 429Q146 429 146 403L146 0L18 0L18 538L145 538Z"  horiz-adv-x="308" vert-adv-y="1000"  />

      
      <glyph glyph-name="uni73" unicode="&#x73;" d="M289 446L289 373L175 373L175 429Q175 457 154 457Q133 457 133 429L133 418Q133 400 137.50 390Q142 380 156 366L227 296Q267 256 281.50 223.50Q296 191 296 147L296 129Q296 69 262.50 30Q229-9 163-9L137-9Q71-9 39 23.50Q7 56 7 108L7 196L125 196L125 124Q125 94 148 94L149 94Q170 94 170 125L170 137Q170 177 142 204L74 269Q39 303 26.50 335Q14 367 14 411L14 428Q14 484 46 516Q78 548 140 548L167 548Q289 548 289 446Z"  horiz-adv-x="302" vert-adv-y="1000"  />

      
      <glyph glyph-name="uni74" unicode="&#x74;" d="M256 0L128 0Q102 0 84.50 18.50Q67 37 67 66L67 419L6 419L6 538L67 538L67 716L194 716L194 538L256 538L256 419L194 419L194 143Q194 131 197.50 126Q201 121 213 121L256 121L256 0Z"  horiz-adv-x="267" vert-adv-y="1000"  />

      
      <glyph glyph-name="uni75" unicode="&#x75;" d="M321 538L321 0L197 0L197 66Q175 33 153.50 15.50Q132-2 100-2L96-2Q60-2 39 26.50Q18 55 18 91L18 538L147 538L147 143Q147 110 169 110Q194 110 194 146L194 538L321 538Z"  horiz-adv-x="339" vert-adv-y="1000"  />

      
      <glyph glyph-name="uni76" unicode="&#x76;" d="M80 0L-2 538L122 538L157 195L193 538L315 538L227 0L80 0Z"  horiz-adv-x="313" vert-adv-y="1000"  />

      
      <glyph glyph-name="uni77" unicode="&#x77;" d="M216 0L79 0L-2 538L124 538L159 205L196 538L309 538L345 201L380 538L500 538L418 0L285 0L250 292L216 0Z"  horiz-adv-x="498" vert-adv-y="1000"  />

      
      <glyph glyph-name="uni78" unicode="&#x78;" d="M75 289L3 538L125 538L160 384L191 538L308 538L240 293L317 0L195 0L157 170L117 0L-2 0L75 289Z"  horiz-adv-x="315" vert-adv-y="1000"  />

      
      <glyph glyph-name="uni79" unicode="&#x79;" d="M91 9L-2 538L124 538L160 241L195 538L318 538L205-107Q189-188 131-188L15-188L15-69L68-69Q80-69 83.50-63.50Q87-58 90-42L92-21Q94-4 91 9Z"  horiz-adv-x="315" vert-adv-y="1000"  />

      
      <glyph glyph-name="uni7a" unicode="&#x7a;" d="M16 538L257 538L257 432L133 114L264 114L264 0L6 0L6 107L131 426L16 426L16 538Z"  horiz-adv-x="270" vert-adv-y="1000"  />

      
      <glyph glyph-name="uni7b" unicode="&#x7b;" d="M172 256Q172 229 158 133Q144 37 144 13Q144-40 187-40L204-40L204-131L160-131Q100-131 68-100.50Q36-70 36-13Q36 10 51.50 112.50Q67 215 67 253Q67 291 37 291L17 291L17 391L37 391Q67 391 67 425Q67 464 51.50 566.50Q36 669 36 695Q36 808 160 808L204 808L204 716L183 716Q144 716 144 673Q144 650 158 553.50Q172 457 172 432Q172 395 161 373.50Q150 352 121 341Q172 321 172 256Z"  horiz-adv-x="210" vert-adv-y="1000"  />

      
      <glyph glyph-name="uni7c" unicode="&#x7c;" d="M131 808L131-131L40-131L40 808L131 808Z"  horiz-adv-x="171" vert-adv-y="1000"  />

      
      <glyph glyph-name="uni7d" unicode="&#x7d;" d="M37 432Q37 458 51.50 554Q66 650 66 673Q66 716 27 716L6 716L6 808L50 808Q109 808 141.50 779.50Q174 751 174 695Q174 669 158 566.50Q142 464 142 425Q142 391 172 391L193 391L193 291L172 291Q142 291 142 253Q142 215 158 112.50Q174 10 174-13Q174-70 142-100.50Q110-131 50-131L6-131L6-40L22-40Q66-40 66 13Q66 37 51.50 133Q37 229 37 256Q37 321 88 341Q59 352 48 373.50Q37 395 37 432Z"  horiz-adv-x="210" vert-adv-y="1000"  />

      
      <glyph glyph-name="uni7e" unicode="&#x7e;" d="M134 345Q108 374 102 374Q95 374 95 363L95 301L11 301L11 419Q11 450 28 472Q45 494 78 494Q113 494 152 452Q176 425 182 425Q189 425 189 435L189 498L273 498L273 379Q273 346 254 325Q235 304 207 304Q185 304 169.50 313Q154 322 134 345Z"  horiz-adv-x="284" vert-adv-y="1000"  />

      
      <glyph glyph-name="unia1" unicode="&#xa1;" d="M18 394L18 538L137 538L137 394L18 394M150-206L5-206L52 371L103 371L150-206Z"  horiz-adv-x="164" vert-adv-y="1000"  />

      
      <glyph glyph-name="unia2" unicode="&#xa2;" d="M315 242L315 125Q315 68 282 29.50Q249-9 186-11L186-75L152-75L152-11Q82-9 48.50 28.50Q15 66 15 129L15 400Q15 469 48.50 508Q82 547 152 548L152 612L186 612L186 548Q253 547 284 512Q315 477 315 418L315 330L207 330L207 407Q207 437 186 446L186 96Q206 105 206 134L206 242L315 242M132 408L132 134Q132 104 152 95L152 446Q132 440 132 408Z"  horiz-adv-x="327" vert-adv-y="1000"  />

      
      <glyph glyph-name="unia3" unicode="&#xa3;" d="M207 252Q207 173 151 117L276 117L276 249L400 249L400 0L8 0L8 89Q55 123 70.50 154Q86 185 86 241Q86 257 81 310L8 310L8 420L70 420Q63 497 63 521L63 590Q63 753 213 753L243 753Q318 753 349 712.50Q380 672 380 611L380 483L257 483L257 590Q257 612 251 622Q245 632 228 632Q211 632 204.50 622.50Q198 613 198 590L198 508Q198 490 200 420L326 420L326 310L206 310Q207 287 207 252Z"  horiz-adv-x="415" vert-adv-y="1000"  />

      
      <glyph glyph-name="unia5" unicode="&#xa5;" d="M245 218L245 0L112 0L112 218L13 218L13 302L112 302L112 328L13 328L13 412L98 412L2 744L133 744L181 503L226 744L345 744L257 412L345 412L345 328L245 328L245 302L345 302L345 218L245 218Z"  horiz-adv-x="358" vert-adv-y="1000"  />

      
      <glyph glyph-name="unia6" unicode="&#xa6;" d="M131 343L131-131L40-131L40 343L131 343M131 808L131 382L40 382L40 808L131 808Z"  horiz-adv-x="171" vert-adv-y="1000"  />

      
      <glyph glyph-name="unia7" unicode="&#xa7;" d="M394 275L394 251Q394 165 309 140Q338 111 347.50 86Q357 61 357 20L357-45Q357-116 320-155.50Q283-195 209-195L178-195Q41-195 41-51L41 53L169 53L169-46Q169-80 197-80Q211-80 216.50-72Q222-64 222-44L222 0Q222 29 214 46.50Q206 64 179 87L91 156Q42 193 26.50 225Q11 257 11 311L11 344Q11 424 93 448Q51 495 51 587L51 606Q51 753 204 753L222 753Q299 753 331.50 718.50Q364 684 364 607L364 528L238 528L238 605Q238 626 232 633.50Q226 641 211 641Q185 641 185 605L185 588Q185 554 192.50 537.50Q200 521 225 499Q303 437 311 431Q364 386 379 356.50Q394 327 394 275M224 327L157 379Q133 374 133 346L133 329Q132 308 140.50 295Q149 282 175 262L243 209Q256 212 261.50 219.50Q267 227 267 249L267 259Q267 280 259 292.50Q251 305 224 327Z"  horiz-adv-x="405" vert-adv-y="1000"  />

      
      <glyph glyph-name="unia8" unicode="&#xa8;" d="M159 670L159 564L59 564L59 670L159 670M283 670L283 564L183 564L183 670L283 670Z"  horiz-adv-x="342" vert-adv-y="1000"  />

      
      <glyph glyph-name="unia9" unicode="&#xa9;" d="M266-11L256-11Q19-11 19 244L19 502Q19 626 81.50 690.50Q144 755 257 755L269 755Q500 755 500 502L500 244Q500 115 436.50 52Q373-11 266-11M258 56L266 56Q424 56 424 259L424 489Q424 688 268 688L258 688Q172 688 134.50 638Q97 588 97 489L97 259Q97 56 258 56M264 207Q281 207 281 233L281 340L385 340L385 223Q385 174 354 142Q323 110 273 110L255 110Q197 110 167.50 143Q138 176 138 232L138 508Q138 569 166.50 602.50Q195 636 252 636L274 636Q324 636 354 608.50Q384 581 384 521L384 439L280 439L280 514Q280 523 279 528Q278 533 274.50 536.50Q271 540 264 540Q246 540 246 514L246 233Q246 207 264 207Z"  horiz-adv-x="519" vert-adv-y="1000"  />

      
      <glyph glyph-name="uniaa" unicode="&#xaa;" d="M185 677L185 526Q185 518 193 518L204 518L204 451L133 451Q110 451 110 488Q90 448 55 448Q33 448 21.50 464Q10 480 10 503L10 556Q10 596 44 618Q67 633 105 650Q110 653 110 662L110 671Q110 687 98 687L97 687Q85 687 85 670L85 650L13 650L13 684Q13 710 30 729Q47 748 89 748L103 748Q149 748 167 730Q185 712 185 677M110 528L110 589Q100 584 93 578Q86 571 86 555L86 527Q86 510 97 510Q110 510 110 528Z"  horiz-adv-x="206" vert-adv-y="1000"  />

      
      <glyph glyph-name="uniab" unicode="&#xab;" d="M102 286L152 119L60 119L12 256L12 316L60 451L152 451L102 286M222 286L265 119L172 119L124 286L172 451L266 451L222 286Z"  horiz-adv-x="273" vert-adv-y="1000"  />

      
      <glyph glyph-name="uniae" unicode="&#xae;" d="M146 399L138 399Q80 399 46.50 433.50Q13 468 13 533L13 619Q13 680 46 715Q79 750 138 750L147 750Q204 750 236 715Q268 680 268 620L268 533Q268 472 233 435.50Q198 399 146 399M138 436L146 436Q226 436 226 538L226 615Q226 713 147 713L138 713Q93 713 74 688.50Q55 664 55 612L55 538Q55 436 138 436M134 560L134 467L83 467L83 687L159 687Q199 687 199 647L199 617Q199 595 180 585Q199 580 199 556L199 491Q199 478 202 472L202 467L153 467Q150 474 150 487L150 547Q150 560 140 560L134 560M134 650L134 599L141 599Q150 599 150 612L150 638Q150 650 141 650L134 650Z"  horiz-adv-x="281" vert-adv-y="1000"  />

      
      <glyph glyph-name="uniaf" unicode="&#xaf;" d="M76 576L76 663L267 663L267 576L76 576Z"  horiz-adv-x="342" vert-adv-y="1000"  />

      
      <glyph glyph-name="unib0" unicode="&#xb0;" d="M33 579.50Q33 579.50 19 593.25Q5 607 5 649Q5 691 33 719Q61 747 106 747Q149 747 177 719Q205 691 205 649Q205 607 177 579.50Q149 552 106 552Q61 552 33 579.50M69 650Q69 612 105 612Q141 612 141 650Q141 666 131 676.50Q121 687 105 687Q88 687 78.50 676.50Q69 666 69 650Z"  horiz-adv-x="210" vert-adv-y="1000"  />

      
      <glyph glyph-name="unib2" unicode="&#xb2;" d="M213 402L7 402L7 446Q7 475 22 501.50Q37 528 87 584Q108 608 113 619.50Q118 631 118 651L118 667Q118 684 104 684Q91 684 91 667L91 614L13 614L13 671Q13 705 32.50 727.50Q52 750 96 750L111 750Q205 750 205 671L205 653Q205 619 191 594.50Q177 570 142 538Q101 501 93.50 491.50Q86 482 86 470L139 470L139 524L213 524L213 402Z"  horiz-adv-x="224" vert-adv-y="1000"  />

      
      <glyph glyph-name="unib3" unicode="&#xb3;" d="M89 630L12 630L12 666Q12 707 31.50 728.50Q51 750 97 750L109 750Q154 750 175.50 730.50Q197 711 197 669L197 646Q197 604 167 592Q204 578 204 538L204 483Q204 397 112 397L98 397Q11 397 11 476L11 527L91 527L91 481Q91 464 104 464Q116 464 116 481L116 530Q116 545 103 545L64 545L64 614L101 614Q115 614 115 630L115 668Q115 686 102 686Q89 686 89 668L89 630Z"  horiz-adv-x="214" vert-adv-y="1000"  />

      
      <glyph glyph-name="unib4" unicode="&#xb4;" d="M97 564L139 700L244 700L200 564L97 564Z"  horiz-adv-x="342" vert-adv-y="1000"  />

      
      <glyph glyph-name="unib6" unicode="&#xb6;" d="M124 744L373 744L373 646L334 646L334 0L249 0L249 646L215 646L215 0L130 0L130 342L124 342Q71 342 42 368.50Q13 395 13 445L13 644Q13 690 43 717Q73 744 124 744Z"  horiz-adv-x="377" vert-adv-y="1000"  />

      
      <glyph glyph-name="unib7" unicode="&#xb7;" d="M134 388L134 244L15 244L15 388L134 388Z"  horiz-adv-x="149" vert-adv-y="1000"  />

      
      <glyph glyph-name="unib8" unicode="&#xb8;" d="M154-188L93-188L93-125L143-125Q165-125 165-108L165-107Q165-92 143-92L108-92L108 0L168 0L168-36L171-36Q250-39 250-108L250-111Q250-149 224-168.50Q198-188 154-188Z"  horiz-adv-x="342" vert-adv-y="1000"  />

      
      <glyph glyph-name="unib9" unicode="&#xb9;" d="M49 638L6 638L6 704Q35 704 46.50 714.50Q58 725 61 744L133 744L133 404L49 404L49 638Z"  horiz-adv-x="151" vert-adv-y="1000"  />

      
      <glyph glyph-name="uniba" unicode="&#xba;" d="M115 448L97 448Q13 448 13 540L13 655Q13 700 35 724Q57 748 97 748L115 748Q154 748 176.50 724.50Q199 701 199 656L199 540Q199 497 176 472.50Q153 448 115 448M92 662L92 535Q92 516 106 516Q120 516 120 535L120 662Q120 681 106 681Q92 681 92 662Z"  horiz-adv-x="212" vert-adv-y="1000"  />

      
      <glyph glyph-name="unibb" unicode="&#xbb;" d="M120 119L170 285L120 451L213 451L260 314L260 255L212 119L120 119M7 119L51 285L7 451L100 451L148 285L100 119L7 119Z"  horiz-adv-x="272" vert-adv-y="1000"  />

      
      <glyph glyph-name="unibc" unicode="&#xbc;" d="M49 638L6 638L6 704Q35 704 46.50 714.50Q58 725 61 744L133 744L133 404L49 404L49 638M277 744L358 744L91 0L10 0L277 744M174 59L174 117Q229 251 260 342L343 342L343 131L371 131L371 59L343 59L343 0L263 0L263 59L174 59M232 131L263 131L263 218Q256 187 232 131Z"  horiz-adv-x="379" vert-adv-y="1000"  />

      
      <glyph glyph-name="unibd" unicode="&#xbd;" d="M49 638L6 638L6 704Q35 704 46.50 714.50Q58 725 61 744L133 744L133 404L49 404L49 638M277 744L358 744L91 0L10 0L277 744M416 0L210 0L210 44Q210 72 225 99Q240 126 290 182Q311 206 316 217.50Q321 229 321 249L321 265Q321 282 307 282Q294 282 294 265L294 212L216 212L216 269Q216 303 235.50 325.50Q255 348 299 348L314 348Q408 348 408 269L408 251Q408 217 394 192.50Q380 168 345 136Q304 99 296.50 89.50Q289 80 289 68L342 68L342 122L416 122L416 0Z"  horiz-adv-x="427" vert-adv-y="1000"  />

      
      <glyph glyph-name="unibe" unicode="&#xbe;" d="M330 744L411 744L144 0L63 0L330 744M89 630L12 630L12 666Q12 707 31.50 728.50Q51 750 97 750L109 750Q154 750 175.50 730.50Q197 711 197 669L197 646Q197 604 167 592Q204 578 204 538L204 483Q204 397 112 397L98 397Q11 397 11 476L11 527L91 527L91 481Q91 464 104 464Q116 464 116 481L116 530Q116 545 103 545L64 545L64 614L101 614Q115 614 115 630L115 668Q115 686 102 686Q89 686 89 668L89 630M227 59L227 117Q282 251 313 342L396 342L396 131L424 131L424 59L396 59L396 0L316 0L316 59L227 59M285 131L316 131L316 218Q309 187 285 131Z"  horiz-adv-x="432" vert-adv-y="1000"  />

      
      <glyph glyph-name="unibf" unicode="&#xbf;" d="M128 371L232 371L232 243Q232 206 225.50 185Q219 164 198 131L163 75Q142 41 142-10L142-59Q142-79 147.50-86.50Q153-94 167-94Q182-94 187-86Q192-78 192-59L192 55L316 55L316-63Q316-135 287.50-175Q259-215 180-215L153-215Q76-215 42.50-177.50Q9-140 9-70L9-18Q9 29 18 60.50Q27 92 54 127L103 194Q119 216 123.50 230.50Q128 245 128 279L128 371M120 394L120 538L239 538L239 394L120 394Z"  horiz-adv-x="333" vert-adv-y="1000"  />

      
      <glyph glyph-name="unic0" unicode="&#xc0;" d="M222 0L208 125L128 125L116 0L-2 0L92 744L250 744L351 0L222 0M167 508L141 253L195 253L167 508M182 885L225 770L121 770L77 885L182 885Z"  horiz-adv-x="349" vert-adv-y="1000"  />

      
      <glyph glyph-name="unic1" unicode="&#xc1;" d="M222 0L208 125L128 125L116 0L-2 0L92 744L250 744L351 0L222 0M167 508L141 253L195 253L167 508M118 770L161 885L267 885L222 770L118 770Z"  horiz-adv-x="349" vert-adv-y="1000"  />

      
      <glyph glyph-name="unic2" unicode="&#xc2;" d="M222 0L208 125L128 125L116 0L-2 0L92 744L250 744L351 0L222 0M167 508L141 253L195 253L167 508M221 885L287 770L198 770L170 817L143 770L54 770L119 885L221 885Z"  horiz-adv-x="349" vert-adv-y="1000"  />

      
      <glyph glyph-name="unic3" unicode="&#xc3;" d="M222 0L208 125L128 125L116 0L-2 0L92 744L250 744L351 0L222 0M167 508L141 253L195 253L167 508M170 787Q148 796 145 796Q137 796 137 785L137 769L65 769L65 803Q65 880 122 880Q147 880 176 867Q197 857 203 857Q209 857 209 867L209 883L281 883L281 849Q281 810 264 791.50Q247 773 224 773Q199 773 170 787Z"  horiz-adv-x="349" vert-adv-y="1000"  />

      
      <glyph glyph-name="unic4" unicode="&#xc4;" d="M222 0L208 125L128 125L116 0L-2 0L92 744L250 744L351 0L222 0M167 508L141 253L195 253L167 508M282 876L282 770L182 770L182 876L282 876M157 876L157 770L57 770L57 876L157 876Z"  horiz-adv-x="349" vert-adv-y="1000"  />

      
      <glyph glyph-name="unic5" unicode="&#xc5;" d="M222 0L208 125L128 125L116 0L-2 0L92 744L250 744L351 0L222 0M167 508L141 253L195 253L167 508M145.50 820Q145.50 820 149.75 815.50Q154 811 169 811Q184 811 192.50 820Q201 829 201 844Q201 859 192.50 868Q184 877 169 877Q154 877 145.50 868Q137 859 137 844Q137 829 145.50 820M226.50 787Q226.50 787 215.25 776Q204 765 169 765Q134 765 111.50 787Q89 809 89 844Q89 879 111.50 901Q134 923 169 923Q204 923 226.50 901Q249 879 249 844Q249 809 226.50 787Z"  horiz-adv-x="349" vert-adv-y="1000"  />

      
      <glyph glyph-name="unic6" unicode="&#xc6;" d="M506 0L225 0L225 131L144 131L122 0L-6 0L134 744L496 744L496 612L358 612L358 451L465 451L465 316L358 316L358 134L506 134L506 0M166 258L225 258L225 602L166 258Z"  horiz-adv-x="515" vert-adv-y="1000"  />

      
      <glyph glyph-name="unic7" unicode="&#xc7;" d="M224 164L224 328L356 328L356 160Q356 85 319.50 36.50Q283-12 202-12L175-12Q87-12 52.50 36Q18 84 18 164L18 584Q18 659 55.50 706Q93 753 175 753L202 753Q248 753 279.50 740Q311 727 327 702.50Q343 678 349.50 651Q356 624 356 589L356 464L224 464L224 584Q224 627 190 627Q157 627 157 584L157 164Q157 119 191 119Q224 119 224 164M180-188L119-188L119-125L169-125Q191-125 191-108L191-107Q191-92 169-92L134-92L134 0L194 0L194-36L197-36Q276-39 276-108L276-111Q276-149 250-168.50Q224-188 180-188Z"  horiz-adv-x="372" vert-adv-y="1000"  />

      
      <glyph glyph-name="unic8" unicode="&#xc8;" d="M21 744L299 744L299 613L154 613L154 451L268 451L268 317L154 317L154 134L306 134L306 0L21 0L21 744M176 885L219 770L115 770L71 885L176 885Z"  horiz-adv-x="315" vert-adv-y="1000"  />

      
      <glyph glyph-name="unic9" unicode="&#xc9;" d="M21 744L299 744L299 613L154 613L154 451L268 451L268 317L154 317L154 134L306 134L306 0L21 0L21 744M108 770L151 885L257 885L212 770L108 770Z"  horiz-adv-x="315" vert-adv-y="1000"  />

      
      <glyph glyph-name="unica" unicode="&#xca;" d="M21 744L299 744L299 613L154 613L154 451L268 451L268 317L154 317L154 134L306 134L306 0L21 0L21 744M213 885L279 770L190 770L162 817L135 770L46 770L111 885L213 885Z"  horiz-adv-x="315" vert-adv-y="1000"  />

      
      <glyph glyph-name="unicb" unicode="&#xcb;" d="M21 744L299 744L299 613L154 613L154 451L268 451L268 317L154 317L154 134L306 134L306 0L21 0L21 744M275 876L275 770L175 770L175 876L275 876M150 876L150 770L50 770L50 876L150 876Z"  horiz-adv-x="315" vert-adv-y="1000"  />

      
      <glyph glyph-name="unicc" unicode="&#xcc;" d="M154 744L154 0L21 0L21 744L154 744M97 885L140 770L36 770L-8 885L97 885Z"  horiz-adv-x="175" vert-adv-y="1000"  />

      
      <glyph glyph-name="unicd" unicode="&#xcd;" d="M154 744L154 0L21 0L21 744L154 744M35 770L78 885L184 885L139 770L35 770Z"  horiz-adv-x="175" vert-adv-y="1000"  />

      
      <glyph glyph-name="unice" unicode="&#xce;" d="M154 744L154 0L21 0L21 744L154 744M136 883L202 768L113 768L85 815L58 768L-31 768L34 883L136 883Z"  horiz-adv-x="175" vert-adv-y="1000"  />

      
      <glyph glyph-name="unicf" unicode="&#xcf;" d="M154 744L154 0L21 0L21 744L154 744M200 876L200 770L100 770L100 876L200 876M75 876L75 770L-25 770L-25 876L75 876Z"  horiz-adv-x="175" vert-adv-y="1000"  />

      
      <glyph glyph-name="unid0" unicode="&#xd0;" d="M25 443L25 744L214 744Q290 744 324.50 706.50Q359 669 359 585L359 165Q359 82 325.50 41Q292 0 214 0L25 0L25 325L0 325L0 443L25 443M158 325L158 124L184 124Q206 124 214.50 136Q223 148 223 176L223 576Q223 603 215 614.50Q207 626 188 626L158 626L158 443L201 443L201 325L158 325Z"  horiz-adv-x="377" vert-adv-y="1000"  />

      
      <glyph glyph-name="unid1" unicode="&#xd1;" d="M21 744L146 744L237 364L237 744L355 744L355 0L242 0L139 408L139 0L21 0L21 744M195 787Q173 796 170 796Q162 796 162 785L162 769L90 769L90 803Q90 880 147 880Q172 880 201 867Q222 857 228 857Q234 857 234 867L234 883L306 883L306 849Q306 810 289 791.50Q272 773 249 773Q224 773 195 787Z"  horiz-adv-x="376" vert-adv-y="1000"  />

      
      <glyph glyph-name="unid2" unicode="&#xd2;" d="M367 564L367 170Q367 87 325 38Q283-11 209-11L179-11Q100-11 59 35.50Q18 82 18 170L18 563Q18 753 178 753L208 753Q367 753 367 564M228 166L228 574Q228 623 193 623Q157 623 157 574L157 166Q157 122 194 122Q228 122 228 166M202 886L245 771L141 771L97 886L202 886Z"  horiz-adv-x="385" vert-adv-y="1000"  />

      
      <glyph glyph-name="unid3" unicode="&#xd3;" d="M367 564L367 170Q367 87 325 38Q283-11 209-11L179-11Q100-11 59 35.50Q18 82 18 170L18 563Q18 753 178 753L208 753Q367 753 367 564M228 166L228 574Q228 623 193 623Q157 623 157 574L157 166Q157 122 194 122Q228 122 228 166M140 771L183 886L289 886L244 771L140 771Z"  horiz-adv-x="385" vert-adv-y="1000"  />

      
      <glyph glyph-name="unid4" unicode="&#xd4;" d="M367 564L367 170Q367 87 325 38Q283-11 209-11L179-11Q100-11 59 35.50Q18 82 18 170L18 563Q18 753 178 753L208 753Q367 753 367 564M228 166L228 574Q228 623 193 623Q157 623 157 574L157 166Q157 122 194 122Q228 122 228 166M243 886L309 771L220 771L192 818L165 771L76 771L141 886L243 886Z"  horiz-adv-x="385" vert-adv-y="1000"  />

      
      <glyph glyph-name="unid5" unicode="&#xd5;" d="M367 564L367 170Q367 87 325 38Q283-11 209-11L179-11Q100-11 59 35.50Q18 82 18 170L18 563Q18 753 178 753L208 753Q367 753 367 564M228 166L228 574Q228 623 193 623Q157 623 157 574L157 166Q157 122 194 122Q228 122 228 166M190 788Q168 797 165 797Q157 797 157 786L157 770L85 770L85 804Q85 881 142 881Q167 881 196 868Q217 858 223 858Q229 858 229 868L229 884L301 884L301 850Q301 811 284 792.50Q267 774 244 774Q219 774 190 788Z"  horiz-adv-x="385" vert-adv-y="1000"  />

      
      <glyph glyph-name="unid6" unicode="&#xd6;" d="M367 564L367 170Q367 87 325 38Q283-11 209-11L179-11Q100-11 59 35.50Q18 82 18 170L18 563Q18 753 178 753L208 753Q367 753 367 564M228 166L228 574Q228 623 193 623Q157 623 157 574L157 166Q157 122 194 122Q228 122 228 166M305 877L305 771L205 771L205 877L305 877M180 877L180 771L80 771L80 877L180 877Z"  horiz-adv-x="385" vert-adv-y="1000"  />

      
      <glyph glyph-name="unid7" unicode="&#xd7;" d="M243 149L157 236L73 149L10 209L95 298L9 386L74 452L159 364L243 452L306 390L220 301L306 214L243 149Z"  horiz-adv-x="315" vert-adv-y="1000"  />

      
      <glyph glyph-name="unid8" unicode="&#xd8;" d="M363 564L363 170Q363 87 321 38Q279-11 205-11L180-11Q122-11 84 24L74 0L0 0L33 82Q18 122 18 170L18 563Q18 753 178 753L203 753Q260 753 296 720L306 744L380 744L347 661Q363 626 363 564M192 122Q228 122 228 166L228 394L153 188L153 166Q153 122 192 122M191 623Q153 623 153 574L153 350L228 559L228 574Q228 623 191 623Z"  horiz-adv-x="381" vert-adv-y="1000"  />

      
      <glyph glyph-name="unid9" unicode="&#xd9;" d="M20 173L20 744L157 744L157 168Q157 122 190 122Q222 122 222 168L222 744L359 744L359 173Q359 82 318.50 35.50Q278-11 205-11L172-11Q20-11 20 173M200 885L243 770L139 770L95 885L200 885Z"  horiz-adv-x="379" vert-adv-y="1000"  />

      
      <glyph glyph-name="unida" unicode="&#xda;" d="M20 173L20 744L157 744L157 168Q157 122 190 122Q222 122 222 168L222 744L359 744L359 173Q359 82 318.50 35.50Q278-11 205-11L172-11Q20-11 20 173M136 770L179 885L285 885L240 770L136 770Z"  horiz-adv-x="379" vert-adv-y="1000"  />

      
      <glyph glyph-name="unidb" unicode="&#xdb;" d="M20 173L20 744L157 744L157 168Q157 122 190 122Q222 122 222 168L222 744L359 744L359 173Q359 82 318.50 35.50Q278-11 205-11L172-11Q20-11 20 173M240 885L306 770L217 770L189 817L162 770L73 770L138 885L240 885Z"  horiz-adv-x="379" vert-adv-y="1000"  />

      
      <glyph glyph-name="unidc" unicode="&#xdc;" d="M20 173L20 744L157 744L157 168Q157 122 190 122Q222 122 222 168L222 744L359 744L359 173Q359 82 318.50 35.50Q278-11 205-11L172-11Q20-11 20 173M302 876L302 770L202 770L202 876L302 876M177 876L177 770L77 770L77 876L177 876Z"  horiz-adv-x="379" vert-adv-y="1000"  />

      
      <glyph glyph-name="unidd" unicode="&#xdd;" d="M337 744L237 293L237 0L104 0L104 288L-6 744L127 744L172 480L217 744L337 744M116 770L159 885L265 885L220 770L116 770Z"  horiz-adv-x="331" vert-adv-y="1000"  />

      
      <glyph glyph-name="unide" unicode="&#xde;" d="M223 188L154 188L154 0L21 0L21 744L154 744L154 594L223 594Q290 594 321.50 563Q353 532 353 461L353 330Q353 188 223 188M154 485L154 298L185 298Q204 298 211.50 307.50Q219 317 219 338L219 444Q219 466 211.50 475.50Q204 485 184 485L154 485Z"  horiz-adv-x="366" vert-adv-y="1000"  />

      
      <glyph glyph-name="unidf" unicode="&#xdf;" d="M267 443Q299 431 314 408Q329 385 329 342L329 130Q329 63 302 31.50Q275 0 209 0L162 0L162 119L178 119Q197 119 197 144L197 324Q197 348 177 348L162 348L162 466L176 466Q195 466 195 494L195 604Q195 634 172 634L166 634Q145 634 145 605L145 0L18 0L18 606Q18 744 155 744L182 744Q253 744 285.50 711Q318 678 318 611L318 525Q318 494 302.50 472Q287 450 267 443Z"  horiz-adv-x="342" vert-adv-y="1000"  />

      
      <glyph glyph-name="unie0" unicode="&#xe0;" d="M182 134L182 265Q158 252 149 240Q137 225 137 199L137 134Q137 102 158 102Q182 102 182 134M14 88L14 205Q14 281 70 315Q83 324 125 343.50Q167 363 174 368Q182 373 182 388L182 417Q182 434 177 440Q172 446 160 446L156 446Q134 446 134 417L134 364L20 364L20 438Q20 482 48 513Q76 544 146 544L169 544Q245 544 275 513.50Q305 483 305 426L305 129Q305 120 308.50 117Q312 114 324 114L338 114L338 0L219 0Q182 0 182 61Q150-5 91-5L87-5Q52-5 33 22.50Q14 50 14 88M170 700L211 564L109 564L64 700L170 700Z"  horiz-adv-x="339" vert-adv-y="1000"  />

      
      <glyph glyph-name="unie1" unicode="&#xe1;" d="M182 134L182 265Q158 252 149 240Q137 225 137 199L137 134Q137 102 158 102Q182 102 182 134M14 88L14 205Q14 281 70 315Q83 324 125 343.50Q167 363 174 368Q182 373 182 388L182 417Q182 434 177 440Q172 446 160 446L156 446Q134 446 134 417L134 364L20 364L20 438Q20 482 48 513Q76 544 146 544L169 544Q245 544 275 513.50Q305 483 305 426L305 129Q305 120 308.50 117Q312 114 324 114L338 114L338 0L219 0Q182 0 182 61Q150-5 91-5L87-5Q52-5 33 22.50Q14 50 14 88M108 564L150 700L255 700L211 564L108 564Z"  horiz-adv-x="339" vert-adv-y="1000"  />

      
      <glyph glyph-name="unie2" unicode="&#xe2;" d="M182 134L182 265Q158 252 149 240Q137 225 137 199L137 134Q137 102 158 102Q182 102 182 134M14 88L14 205Q14 281 70 315Q83 324 125 343.50Q167 363 174 368Q182 373 182 388L182 417Q182 434 177 440Q172 446 160 446L156 446Q134 446 134 417L134 364L20 364L20 438Q20 482 48 513Q76 544 146 544L169 544Q245 544 275 513.50Q305 483 305 426L305 129Q305 120 308.50 117Q312 114 324 114L338 114L338 0L219 0Q182 0 182 61Q150-5 91-5L87-5Q52-5 33 22.50Q14 50 14 88M214 700L276 564L185 564L161 626L136 564L47 564L108 700L214 700Z"  horiz-adv-x="339" vert-adv-y="1000"  />

      
      <glyph glyph-name="unie3" unicode="&#xe3;" d="M182 134L182 265Q158 252 149 240Q137 225 137 199L137 134Q137 102 158 102Q182 102 182 134M14 88L14 205Q14 281 70 315Q83 324 125 343.50Q167 363 174 368Q182 373 182 388L182 417Q182 434 177 440Q172 446 160 446L156 446Q134 446 134 417L134 364L20 364L20 438Q20 482 48 513Q76 544 146 544L169 544Q245 544 275 513.50Q305 483 305 426L305 129Q305 120 308.50 117Q312 114 324 114L338 114L338 0L219 0Q182 0 182 61Q150-5 91-5L87-5Q52-5 33 22.50Q14 50 14 88M193 678L266 678L266 622Q266 597 251 580Q236 563 212 563Q187 563 152 582Q133 591 129 591Q122 591 122 579L122 563L50 563L50 610Q50 641 64.50 659.50Q79 678 105 678Q124 678 164 660Q181 652 187 652Q193 652 193 662L193 678Z"  horiz-adv-x="339" vert-adv-y="1000"  />

      
      <glyph glyph-name="unie4" unicode="&#xe4;" d="M182 134L182 265Q158 252 149 240Q137 225 137 199L137 134Q137 102 158 102Q182 102 182 134M14 88L14 205Q14 281 70 315Q83 324 125 343.50Q167 363 174 368Q182 373 182 388L182 417Q182 434 177 440Q172 446 160 446L156 446Q134 446 134 417L134 364L20 364L20 438Q20 482 48 513Q76 544 146 544L169 544Q245 544 275 513.50Q305 483 305 426L305 129Q305 120 308.50 117Q312 114 324 114L338 114L338 0L219 0Q182 0 182 61Q150-5 91-5L87-5Q52-5 33 22.50Q14 50 14 88M146 670L146 564L46 564L46 670L146 670M270 670L270 564L170 564L170 670L270 670Z"  horiz-adv-x="339" vert-adv-y="1000"  />

      
      <glyph glyph-name="unie5" unicode="&#xe5;" d="M182 134L182 265Q158 252 149 240Q137 225 137 199L137 134Q137 102 158 102Q182 102 182 134M14 88L14 205Q14 281 70 315Q83 324 125 343.50Q167 363 174 368Q182 373 182 388L182 417Q182 434 177 440Q172 446 160 446L156 446Q134 446 134 417L134 364L20 364L20 438Q20 482 48 513Q76 544 146 544L169 544Q245 544 275 513.50Q305 483 305 426L305 129Q305 120 308.50 117Q312 114 324 114L338 114L338 0L219 0Q182 0 182 61Q150-5 91-5L87-5Q52-5 33 22.50Q14 50 14 88M133.50 617Q133.50 617 137.75 612.50Q142 608 157 608Q172 608 180.50 617Q189 626 189 641Q189 656 180.50 665Q172 674 157 674Q142 674 133.50 665Q125 656 125 641Q125 626 133.50 617M214.50 584Q214.50 584 203.25 573Q192 562 157 562Q122 562 99.50 584Q77 606 77 641Q77 676 99.50 698Q122 720 157 720Q192 720 214.50 698Q237 676 237 641Q237 606 214.50 584Z"  horiz-adv-x="339" vert-adv-y="1000"  />

      
      <glyph glyph-name="unie6" unicode="&#xe6;" d="M193 63Q153-5 92-5L88-5Q52-5 33 22Q14 49 14 88L14 186Q14 262 70 296Q83 305 125 324.50Q167 344 174 349Q182 354 182 369L182 417Q182 434 177 440Q172 446 160 446L156 446Q134 446 134 417L134 345L20 345L20 438Q20 482 48 513Q76 544 146 544L169 544Q222 544 249 517Q272 548 329 548L344 548Q409 548 442.50 513.50Q476 479 476 401L476 251L305 251L305 134Q305 116 310 109Q315 102 329 102Q354 102 354 134L354 214L476 214L476 124Q476 62 441 26Q406-10 339-10L318-10Q218-10 193 63M182 134L182 246Q158 233 149 221Q137 206 137 180L137 134Q137 102 158 102Q182 102 182 134M305 417L305 347L357 347L357 416Q357 448 331 448Q305 448 305 417Z"  horiz-adv-x="489" vert-adv-y="1000"  />

      
      <glyph glyph-name="unie7" unicode="&#xe7;" d="M190 241L309 241L309 125Q309 65 276 27Q243-11 177-11L156-11Q84-11 49.50 27Q15 65 15 129L15 400Q15 548 154 548L179 548Q309 548 309 418L309 329L191 329L191 405Q191 443 167 443Q144 443 144 406L144 135Q144 102 166 102Q190 102 190 133L190 241M158-188L97-188L97-125L147-125Q169-125 169-108L169-107Q169-92 147-92L112-92L112 0L172 0L172-36L175-36Q254-39 254-108L254-111Q254-149 228-168.50Q202-188 158-188Z"  horiz-adv-x="322" vert-adv-y="1000"  />

      
      <glyph glyph-name="unie8" unicode="&#xe8;" d="M150 548L174 548Q309 548 309 411L309 252L138 252L138 135Q138 102 163 102Q186 102 186 135L186 215L309 215L309 117Q309 56 271 23Q233-10 174-10L150-10Q88-10 51.50 23Q15 56 15 117L15 413Q15 472 48.50 510Q82 548 150 548M138 413L138 348L190 348L190 413Q190 449 164 449Q148 449 143 440.50Q138 432 138 413M172 702L213 566L111 566L66 702L172 702Z"  horiz-adv-x="323" vert-adv-y="1000"  />

      
      <glyph glyph-name="unie9" unicode="&#xe9;" d="M150 548L174 548Q309 548 309 411L309 252L138 252L138 135Q138 102 163 102Q186 102 186 135L186 215L309 215L309 117Q309 56 271 23Q233-10 174-10L150-10Q88-10 51.50 23Q15 56 15 117L15 413Q15 472 48.50 510Q82 548 150 548M138 413L138 348L190 348L190 413Q190 449 164 449Q148 449 143 440.50Q138 432 138 413M111 566L153 702L258 702L214 566L111 566Z"  horiz-adv-x="323" vert-adv-y="1000"  />

      
      <glyph glyph-name="uniea" unicode="&#xea;" d="M150 548L174 548Q309 548 309 411L309 252L138 252L138 135Q138 102 163 102Q186 102 186 135L186 215L309 215L309 117Q309 56 271 23Q233-10 174-10L150-10Q88-10 51.50 23Q15 56 15 117L15 413Q15 472 48.50 510Q82 548 150 548M138 413L138 348L190 348L190 413Q190 449 164 449Q148 449 143 440.50Q138 432 138 413M216 702L278 566L187 566L163 628L138 566L49 566L110 702L216 702Z"  horiz-adv-x="323" vert-adv-y="1000"  />

      
      <glyph glyph-name="unieb" unicode="&#xeb;" d="M150 548L174 548Q309 548 309 411L309 252L138 252L138 135Q138 102 163 102Q186 102 186 135L186 215L309 215L309 117Q309 56 271 23Q233-10 174-10L150-10Q88-10 51.50 23Q15 56 15 117L15 413Q15 472 48.50 510Q82 548 150 548M138 413L138 348L190 348L190 413Q190 449 164 449Q148 449 143 440.50Q138 432 138 413M151 672L151 566L51 566L51 672L151 672M275 672L275 566L175 566L175 672L275 672Z"  horiz-adv-x="323" vert-adv-y="1000"  />

      
      <glyph glyph-name="uniec" unicode="&#xec;" d="M146 538L146 0L18 0L18 538L146 538M93 700L134 564L32 564L-13 700L93 700Z"  horiz-adv-x="164" vert-adv-y="1000"  />

      
      <glyph glyph-name="unied" unicode="&#xed;" d="M146 538L146 0L18 0L18 538L146 538M31 564L73 700L178 700L134 564L31 564Z"  horiz-adv-x="164" vert-adv-y="1000"  />

      
      <glyph glyph-name="uniee" unicode="&#xee;" d="M135 700L187 564L101 564L82 630L62 564L-23 564L29 700L135 700M146 538L146 0L18 0L18 538L146 538Z"  horiz-adv-x="164" vert-adv-y="1000"  />

      
      <glyph glyph-name="unief" unicode="&#xef;" d="M71 670L71 564L-22 564L-22 670L71 670M186 670L186 564L93 564L93 670L186 670M146 538L146 0L18 0L18 538L146 538Z"  horiz-adv-x="164" vert-adv-y="1000"  />

      
      <glyph glyph-name="unif0" unicode="&#xf0;" d="M57 549L57 635L115 661L74 744L192 744L212 705L285 738L285 652L247 635L282 567Q309 516 317.50 482Q326 448 326 393L326 144Q326 76 288.50 33Q251-10 186-10L154-10Q84-10 49.50 32Q15 74 15 142L15 429Q15 478 40 509Q65 540 100 540L102 540Q132 540 155.50 524.50Q179 509 205 479L149 591L57 549M197 144L197 400Q197 437 170 437Q144 437 144 400L144 144Q144 106 170 106Q197 106 197 144Z"  horiz-adv-x="341" vert-adv-y="1000"  />

      
      <glyph glyph-name="unif1" unicode="&#xf1;" d="M18 0L18 538L145 538L145 473Q190 540 242 540L249 540Q289 540 307.50 511Q326 482 326 450L326 0L197 0L197 396Q197 428 172 428Q146 428 146 392L146 0L18 0M207 678L280 678L280 622Q280 597 265 580Q250 563 226 563Q201 563 166 582Q147 591 143 591Q136 591 136 579L136 563L64 563L64 610Q64 641 78.50 659.50Q93 678 119 678Q137 678 178 660Q195 652 201 652Q207 652 207 662L207 678Z"  horiz-adv-x="344" vert-adv-y="1000"  />

      
      <glyph glyph-name="unif2" unicode="&#xf2;" d="M15 142L15 397Q15 469 52 508.50Q89 548 155 548L185 548Q252 548 289 509Q326 470 326 399L326 144Q326 77 288 33.50Q250-10 185-10L155-10Q84-10 49.50 31.50Q15 73 15 142M144 400L144 144Q144 106 170 106Q197 106 197 144L197 400Q197 437 170 437Q144 437 144 400M180 702L221 566L119 566L74 702L180 702Z"  horiz-adv-x="341" vert-adv-y="1000"  />

      
      <glyph glyph-name="unif3" unicode="&#xf3;" d="M15 142L15 397Q15 469 52 508.50Q89 548 155 548L185 548Q252 548 289 509Q326 470 326 399L326 144Q326 77 288 33.50Q250-10 185-10L155-10Q84-10 49.50 31.50Q15 73 15 142M144 400L144 144Q144 106 170 106Q197 106 197 144L197 400Q197 437 170 437Q144 437 144 400M119 566L161 702L266 702L222 566L119 566Z"  horiz-adv-x="341" vert-adv-y="1000"  />

      
      <glyph glyph-name="unif4" unicode="&#xf4;" d="M15 142L15 397Q15 469 52 508.50Q89 548 155 548L185 548Q252 548 289 509Q326 470 326 399L326 144Q326 77 288 33.50Q250-10 185-10L155-10Q84-10 49.50 31.50Q15 73 15 142M144 400L144 144Q144 106 170 106Q197 106 197 144L197 400Q197 437 170 437Q144 437 144 400M223 702L285 566L194 566L170 628L145 566L56 566L117 702L223 702Z"  horiz-adv-x="341" vert-adv-y="1000"  />

      
      <glyph glyph-name="unif5" unicode="&#xf5;" d="M15 142L15 397Q15 469 52 508.50Q89 548 155 548L185 548Q252 548 289 509Q326 470 326 399L326 144Q326 77 288 33.50Q250-10 185-10L155-10Q84-10 49.50 31.50Q15 73 15 142M144 400L144 144Q144 106 170 106Q197 106 197 144L197 400Q197 437 170 437Q144 437 144 400M205 680L278 680L278 624Q278 599 263 582Q248 565 224 565Q199 565 164 584Q145 593 141 593Q134 593 134 581L134 565L62 565L62 612Q62 643 76.50 661.50Q91 680 117 680Q136 680 176 662Q193 654 199 654Q205 654 205 664L205 680Z"  horiz-adv-x="341" vert-adv-y="1000"  />

      
      <glyph glyph-name="unif6" unicode="&#xf6;" d="M15 142L15 397Q15 469 52 508.50Q89 548 155 548L185 548Q252 548 289 509Q326 470 326 399L326 144Q326 77 288 33.50Q250-10 185-10L155-10Q84-10 49.50 31.50Q15 73 15 142M144 400L144 144Q144 106 170 106Q197 106 197 144L197 400Q197 437 170 437Q144 437 144 400M159 672L159 566L59 566L59 672L159 672M283 672L283 566L183 566L183 672L283 672Z"  horiz-adv-x="341" vert-adv-y="1000"  />

      
      <glyph glyph-name="unif7" unicode="&#xf7;" d="M15 346L328 346L328 255L15 255L15 346M223 478L223 375L120 375L120 478L223 478M223 223L223 120L120 120L120 223L223 223Z"  horiz-adv-x="343" vert-adv-y="1000"  />

      
      <glyph glyph-name="unif8" unicode="&#xf8;" d="M15 142L15 397Q15 469 52 508.50Q89 548 155 548L181 548Q232 548 268 519L278 538L344 538L309 469Q321 436 321 399L321 144Q321 76 283.50 33Q246-10 181-10L155-10Q106-10 70 20L60 0L-7 0L29 70Q15 97 15 142M196 387L196 401Q196 438 168 438Q140 438 140 401L140 264L196 387M140 143Q140 105 168 105Q196 105 196 143L196 272L140 151L140 143Z"  horiz-adv-x="336" vert-adv-y="1000"  />

      
      <glyph glyph-name="unif9" unicode="&#xf9;" d="M321 538L321 0L197 0L197 66Q175 33 153.50 15.50Q132-2 100-2L96-2Q60-2 39 26.50Q18 55 18 91L18 538L147 538L147 143Q147 110 169 110Q194 110 194 146L194 538L321 538M183 700L224 564L122 564L77 700L183 700Z"  horiz-adv-x="339" vert-adv-y="1000"  />

      
      <glyph glyph-name="unifa" unicode="&#xfa;" d="M321 538L321 0L197 0L197 66Q175 33 153.50 15.50Q132-2 100-2L96-2Q60-2 39 26.50Q18 55 18 91L18 538L147 538L147 143Q147 110 169 110Q194 110 194 146L194 538L321 538M119 564L161 700L266 700L222 564L119 564Z"  horiz-adv-x="339" vert-adv-y="1000"  />

      
      <glyph glyph-name="unifb" unicode="&#xfb;" d="M321 538L321 0L197 0L197 66Q175 33 153.50 15.50Q132-2 100-2L96-2Q60-2 39 26.50Q18 55 18 91L18 538L147 538L147 143Q147 110 169 110Q194 110 194 146L194 538L321 538M222 700L284 564L193 564L169 626L144 564L55 564L116 700L222 700Z"  horiz-adv-x="339" vert-adv-y="1000"  />

      
      <glyph glyph-name="unifc" unicode="&#xfc;" d="M321 538L321 0L197 0L197 66Q175 33 153.50 15.50Q132-2 100-2L96-2Q60-2 39 26.50Q18 55 18 91L18 538L147 538L147 143Q147 110 169 110Q194 110 194 146L194 538L321 538M158 670L158 564L58 564L58 670L158 670M282 670L282 564L182 564L182 670L282 670Z"  horiz-adv-x="339" vert-adv-y="1000"  />

      
      <glyph glyph-name="unifd" unicode="&#xfd;" d="M91 9L-2 538L124 538L160 241L195 538L318 538L205-107Q189-188 131-188L15-188L15-69L68-69Q80-69 83.50-63.50Q87-58 90-42L92-21Q94-4 91 9M105 564L147 700L252 700L208 564L105 564Z"  horiz-adv-x="315" vert-adv-y="1000"  />

      
      <glyph glyph-name="unife" unicode="&#xfe;" d="M18 744L146 744L146 478Q184 544 243 544L245 544Q286 544 306.50 513Q327 482 327 429L327 108Q327 55 300.50 22Q274-11 237-11L235-11Q184-11 146 47L146-188L18-188L18 744M146 402L146 130Q146 94 171 94Q196 94 196 129L196 402Q196 436 171 436Q146 436 146 402Z"  horiz-adv-x="344" vert-adv-y="1000"  />

      
      <glyph glyph-name="uniff" unicode="&#xff;" d="M91 9L-2 538L124 538L160 241L195 538L318 538L205-107Q189-188 131-188L15-188L15-69L68-69Q80-69 83.50-63.50Q87-58 90-42L92-21Q94-4 91 9M147 670L147 564L47 564L47 670L147 670M271 670L271 564L171 564L171 670L271 670Z"  horiz-adv-x="315" vert-adv-y="1000"  />

      
      <glyph glyph-name="uni0100" unicode="&#x0100;" d="M222 0L208 125L128 125L116 0L-2 0L92 744L250 744L351 0L222 0M167 508L141 253L195 253L167 508M74 777L74 865L267 865L267 777L74 777Z"  horiz-adv-x="349" vert-adv-y="1000"  />

      
      <glyph glyph-name="uni0101" unicode="&#x0101;" d="M182 134L182 265Q158 252 149 240Q137 225 137 199L137 134Q137 102 158 102Q182 102 182 134M14 88L14 205Q14 281 70 315Q83 324 125 343.50Q167 363 174 368Q182 373 182 388L182 417Q182 434 177 440Q172 446 160 446L156 446Q134 446 134 417L134 364L20 364L20 438Q20 482 48 513Q76 544 146 544L169 544Q245 544 275 513.50Q305 483 305 426L305 129Q305 120 308.50 117Q312 114 324 114L338 114L338 0L219 0Q182 0 182 61Q150-5 91-5L87-5Q52-5 33 22.50Q14 50 14 88M63 576L63 663L254 663L254 576L63 576Z"  horiz-adv-x="339" vert-adv-y="1000"  />

      
      <glyph glyph-name="uni0102" unicode="&#x0102;" d="M222 0L208 125L128 125L116 0L-2 0L92 744L250 744L351 0L222 0M167 508L141 253L195 253L167 508M172 767L168 767Q121 767 91 795Q61 823 61 870L61 875L146 875L146 872Q146 846 169 846L171 846Q194 846 194 872L194 875L278 875L278 870Q278 823 247 795Q216 767 172 767Z"  horiz-adv-x="349" vert-adv-y="1000"  />

      
      <glyph glyph-name="uni0103" unicode="&#x0103;" d="M182 134L182 265Q158 252 149 240Q137 225 137 199L137 134Q137 102 158 102Q182 102 182 134M14 88L14 205Q14 281 70 315Q83 324 125 343.50Q167 363 174 368Q182 373 182 388L182 417Q182 434 177 440Q172 446 160 446L156 446Q134 446 134 417L134 364L20 364L20 438Q20 482 48 513Q76 544 146 544L169 544Q245 544 275 513.50Q305 483 305 426L305 129Q305 120 308.50 117Q312 114 324 114L338 114L338 0L219 0Q182 0 182 61Q150-5 91-5L87-5Q52-5 33 22.50Q14 50 14 88M154 563L151 563Q102 563 72.50 591Q43 619 43 672L43 680L128 680L128 674Q128 641 152 641L153 641Q177 641 177 674L177 680L260 680L260 672Q260 620 229.50 591.50Q199 563 154 563Z"  horiz-adv-x="339" vert-adv-y="1000"  />

      
      <glyph glyph-name="uni0104" unicode="&#x0104;" d="M222 0L208 125L128 125L116 0L-2 0L92 744L250 744L351 0L222 0M167 508L141 253L195 253L167 508M215-124L215-109Q215-83 233.50-58Q252-33 289 0L351 0Q307-55 307-84L307-88Q307-108 333-108L351-108L351-188L293-188Q259-188 237-171.50Q215-155 215-124Z"  horiz-adv-x="349" vert-adv-y="1000"  />

      
      <glyph glyph-name="uni0105" unicode="&#x0105;" d="M182 134L182 265Q158 252 149 240Q137 225 137 199L137 134Q137 102 158 102Q182 102 182 134M14 88L14 205Q14 281 70 315Q83 324 125 343.50Q167 363 174 368Q182 373 182 388L182 417Q182 434 177 440Q172 446 160 446L156 446Q134 446 134 417L134 364L20 364L20 438Q20 482 48 513Q76 544 146 544L169 544Q245 544 275 513.50Q305 483 305 426L305 129Q305 120 308.50 117Q312 114 324 114L338 114L338 0L219 0Q182 0 182 61Q150-5 91-5L87-5Q52-5 33 22.50Q14 50 14 88M202-124L202-109Q202-83 220.50-58Q239-33 276 0L338 0Q294-55 294-84L294-88Q294-108 320-108L338-108L338-188L280-188Q246-188 224-171.50Q202-155 202-124Z"  horiz-adv-x="339" vert-adv-y="1000"  />

      
      <glyph glyph-name="uni0106" unicode="&#x0106;" d="M140 771L183 885L289 885L244 771L140 771M224 164L224 328L356 328L356 160Q356 85 319.50 36.50Q283-12 202-12L175-12Q87-12 52.50 36Q18 84 18 164L18 584Q18 659 55.50 706Q93 753 175 753L202 753Q248 753 279.50 740Q311 727 327 702.50Q343 678 349.50 651Q356 624 356 589L356 464L224 464L224 584Q224 627 190 627Q157 627 157 584L157 164Q157 119 191 119Q224 119 224 164Z"  horiz-adv-x="372" vert-adv-y="1000"  />

      
      <glyph glyph-name="uni0107" unicode="&#x0107;" d="M114 566L156 700L261 700L217 566L114 566M190 241L309 241L309 125Q309 65 276 27Q243-11 177-11L156-11Q84-11 49.50 27Q15 65 15 129L15 400Q15 548 154 548L179 548Q309 548 309 418L309 329L191 329L191 405Q191 443 167 443Q144 443 144 406L144 135Q144 102 166 102Q190 102 190 133L190 241Z"  horiz-adv-x="322" vert-adv-y="1000"  />

      
      <glyph glyph-name="uni0108" unicode="&#x0108;" d="M241 885L307 771L218 771L190 817L163 771L74 771L139 885L241 885M224 164L224 328L356 328L356 160Q356 85 319.50 36.50Q283-12 202-12L175-12Q87-12 52.50 36Q18 84 18 164L18 584Q18 659 55.50 706Q93 753 175 753L202 753Q248 753 279.50 740Q311 727 327 702.50Q343 678 349.50 651Q356 624 356 589L356 464L224 464L224 584Q224 627 190 627Q157 627 157 584L157 164Q157 119 191 119Q224 119 224 164Z"  horiz-adv-x="372" vert-adv-y="1000"  />

      
      <glyph glyph-name="uni0109" unicode="&#x0109;" d="M219 700L281 566L190 566L166 626L141 566L52 566L113 700L219 700M190 241L309 241L309 125Q309 65 276 27Q243-11 177-11L156-11Q84-11 49.50 27Q15 65 15 129L15 400Q15 548 154 548L179 548Q309 548 309 418L309 329L191 329L191 405Q191 443 167 443Q144 443 144 406L144 135Q144 102 166 102Q190 102 190 133L190 241Z"  horiz-adv-x="322" vert-adv-y="1000"  />

      
      <glyph glyph-name="uni010A" unicode="&#x010A;" d="M254 896L254 771L126 771L126 896L254 896M224 164L224 328L356 328L356 160Q356 85 319.50 36.50Q283-12 202-12L175-12Q87-12 52.50 36Q18 84 18 164L18 584Q18 659 55.50 706Q93 753 175 753L202 753Q248 753 279.50 740Q311 727 327 702.50Q343 678 349.50 651Q356 624 356 589L356 464L224 464L224 584Q224 627 190 627Q157 627 157 584L157 164Q157 119 191 119Q224 119 224 164Z"  horiz-adv-x="372" vert-adv-y="1000"  />

      
      <glyph glyph-name="uni010B" unicode="&#x010B;" d="M230 690L230 566L102 566L102 690L230 690M190 241L309 241L309 125Q309 65 276 27Q243-11 177-11L156-11Q84-11 49.50 27Q15 65 15 129L15 400Q15 548 154 548L179 548Q309 548 309 418L309 329L191 329L191 405Q191 443 167 443Q144 443 144 406L144 135Q144 102 166 102Q190 102 190 133L190 241Z"  horiz-adv-x="322" vert-adv-y="1000"  />

      
      <glyph glyph-name="uni010C" unicode="&#x010C;" d="M139 771L73 885L163 885L190 837L217 885L306 885L240 771L139 771M224 164L224 328L356 328L356 160Q356 85 319.50 36.50Q283-12 202-12L175-12Q87-12 52.50 36Q18 84 18 164L18 584Q18 659 55.50 706Q93 753 175 753L202 753Q248 753 279.50 740Q311 727 327 702.50Q343 678 349.50 651Q356 624 356 589L356 464L224 464L224 584Q224 627 190 627Q157 627 157 584L157 164Q157 119 191 119Q224 119 224 164Z"  horiz-adv-x="372" vert-adv-y="1000"  />

      
      <glyph glyph-name="uni010D" unicode="&#x010D;" d="M114 566L53 700L144 700L168 638L193 700L282 700L221 566L114 566M190 241L309 241L309 125Q309 65 276 27Q243-11 177-11L156-11Q84-11 49.50 27Q15 65 15 129L15 400Q15 548 154 548L179 548Q309 548 309 418L309 329L191 329L191 405Q191 443 167 443Q144 443 144 406L144 135Q144 102 166 102Q190 102 190 133L190 241Z"  horiz-adv-x="322" vert-adv-y="1000"  />

      
      <glyph glyph-name="uni010E" unicode="&#x010E;" d="M21 0L21 744L210 744Q286 744 320.50 706.50Q355 669 355 585L355 165Q355 82 321.50 41Q288 0 210 0L21 0M154 626L154 124L180 124Q202 124 210.50 136Q219 148 219 176L219 576Q219 603 211 614.50Q203 626 184 626L154 626M122 770L56 885L146 885L173 837L200 885L289 885L223 770L122 770Z"  horiz-adv-x="374" vert-adv-y="1000"  />

      
      <glyph glyph-name="uni010F" unicode="&#x010F;" d="M343 594L349 744L436 744L424 594L343 594M198 744L326 744L326 0L198 0L198 60Q158-11 109-11L107-11Q68-11 42.50 22.50Q17 56 17 104L17 437Q17 479 38.50 511.50Q60 544 97 544L102 544Q154 544 198 478L198 744M198 143L198 392Q198 434 171 434Q146 434 146 397L146 138Q146 101 171 101Q198 101 198 143Z"  horiz-adv-x="344" vert-adv-y="1000"  />

      
      <glyph glyph-name="uni0110" unicode="&#x0110;" d="M25 443L25 744L214 744Q290 744 324.50 706.50Q359 669 359 585L359 165Q359 82 325.50 41Q292 0 214 0L25 0L25 325L0 325L0 443L25 443M158 325L158 124L184 124Q206 124 214.50 136Q223 148 223 176L223 576Q223 603 215 614.50Q207 626 188 626L158 626L158 443L201 443L201 325L158 325Z"  horiz-adv-x="377" vert-adv-y="1000"  />

      
      <glyph glyph-name="uni0111" unicode="&#x0111;" d="M123 583L123 674L358 674L358 583L123 583M198 744L326 744L326 0L198 0L198 60Q158-11 109-11L107-11Q68-11 42.50 22.50Q17 56 17 104L17 437Q17 479 38.50 511.50Q60 544 97 544L102 544Q154 544 198 478L198 744M198 143L198 392Q198 434 171 434Q146 434 146 397L146 138Q146 101 171 101Q198 101 198 143Z"  horiz-adv-x="344" vert-adv-y="1000"  />

      
      <glyph glyph-name="uni0112" unicode="&#x0112;" d="M21 744L299 744L299 613L154 613L154 451L268 451L268 317L154 317L154 134L306 134L306 0L21 0L21 744M66 777L66 865L259 865L259 777L66 777Z"  horiz-adv-x="315" vert-adv-y="1000"  />

      
      <glyph glyph-name="uni0113" unicode="&#x0113;" d="M150 548L174 548Q309 548 309 411L309 252L138 252L138 135Q138 102 163 102Q186 102 186 135L186 215L309 215L309 117Q309 56 271 23Q233-10 174-10L150-10Q88-10 51.50 23Q15 56 15 117L15 413Q15 472 48.50 510Q82 548 150 548M138 413L138 348L190 348L190 413Q190 449 164 449Q148 449 143 440.50Q138 432 138 413M67 578L67 665L258 665L258 578L67 578Z"  horiz-adv-x="323" vert-adv-y="1000"  />

      
      <glyph glyph-name="uni0114" unicode="&#x0114;" d="M21 744L299 744L299 613L154 613L154 451L268 451L268 317L154 317L154 134L306 134L306 0L21 0L21 744M167 767L163 767Q116 767 86 795Q56 823 56 870L56 875L141 875L141 872Q141 846 164 846L166 846Q189 846 189 872L189 875L273 875L273 870Q273 823 242 795Q211 767 167 767Z"  horiz-adv-x="315" vert-adv-y="1000"  />

      
      <glyph glyph-name="uni0115" unicode="&#x0115;" d="M150 548L174 548Q309 548 309 411L309 252L138 252L138 135Q138 102 163 102Q186 102 186 135L186 215L309 215L309 117Q309 56 271 23Q233-10 174-10L150-10Q88-10 51.50 23Q15 56 15 117L15 413Q15 472 48.50 510Q82 548 150 548M138 413L138 348L190 348L190 413Q190 449 164 449Q148 449 143 440.50Q138 432 138 413M165 565L162 565Q113 565 83.50 593Q54 621 54 674L54 682L139 682L139 676Q139 643 163 643L164 643Q188 643 188 676L188 682L271 682L271 674Q271 622 240.50 593.50Q210 565 165 565Z"  horiz-adv-x="323" vert-adv-y="1000"  />

      
      <glyph glyph-name="uni0116" unicode="&#x0116;" d="M21 744L299 744L299 613L154 613L154 451L268 451L268 317L154 317L154 134L306 134L306 0L21 0L21 744M229 896L229 770L101 770L101 896L229 896Z"  horiz-adv-x="315" vert-adv-y="1000"  />

      
      <glyph glyph-name="uni0117" unicode="&#x0117;" d="M226 690L226 566L98 566L98 690L226 690M150 548L174 548Q309 548 309 411L309 252L138 252L138 135Q138 102 163 102Q186 102 186 135L186 215L309 215L309 117Q309 56 271 23Q233-10 174-10L150-10Q88-10 51.50 23Q15 56 15 117L15 413Q15 472 48.50 510Q82 548 150 548M138 413L138 348L190 348L190 413Q190 449 164 449Q148 449 143 440.50Q138 432 138 413Z"  horiz-adv-x="323" vert-adv-y="1000"  />

      
      <glyph glyph-name="uni0118" unicode="&#x0118;" d="M21 744L299 744L299 613L154 613L154 451L268 451L268 317L154 317L154 134L306 134L306 0L21 0L21 744M125-124L125-109Q125-83 143.50-58Q162-33 199 0L261 0Q217-55 217-84L217-88Q217-108 243-108L261-108L261-188L203-188Q169-188 147-171.50Q125-155 125-124Z"  horiz-adv-x="315" vert-adv-y="1000"  />

      
      <glyph glyph-name="uni0119" unicode="&#x0119;" d="M256-1Q213-55 213-84L213-88Q213-108 239-108L257-108L257-188L199-188Q165-188 143-171.50Q121-155 121-124L121-109Q121-66 186-9Q183-10 174-10L150-10Q88-10 51.50 23Q15 56 15 117L15 413Q15 472 48.50 510Q82 548 150 548L174 548Q309 548 309 411L309 252L138 252L138 135Q138 102 163 102Q186 102 186 135L186 215L309 215L309 121Q309 93 301 70Q293 47 285.50 37Q278 27 256-1M138 413L138 348L190 348L190 413Q190 449 164 449Q148 449 143 440.50Q138 432 138 413Z"  horiz-adv-x="323" vert-adv-y="1000"  />

      
      <glyph glyph-name="uni011A" unicode="&#x011A;" d="M21 744L299 744L299 613L154 613L154 451L268 451L268 317L154 317L154 134L306 134L306 0L21 0L21 744M114 770L48 885L138 885L165 837L192 885L281 885L215 770L114 770Z"  horiz-adv-x="315" vert-adv-y="1000"  />

      
      <glyph glyph-name="uni011B" unicode="&#x011B;" d="M110 566L49 700L140 700L164 638L189 700L278 700L217 566L110 566M150 548L174 548Q309 548 309 411L309 252L138 252L138 135Q138 102 163 102Q186 102 186 135L186 215L309 215L309 117Q309 56 271 23Q233-10 174-10L150-10Q88-10 51.50 23Q15 56 15 117L15 413Q15 472 48.50 510Q82 548 150 548M138 413L138 348L190 348L190 413Q190 449 164 449Q148 449 143 440.50Q138 432 138 413Z"  horiz-adv-x="323" vert-adv-y="1000"  />

      
      <glyph glyph-name="uni011C" unicode="&#x011C;" d="M240 885L306 771L217 771L189 817L162 771L73 771L138 885L240 885M149-10L139-10Q83-10 50.50 32Q18 74 18 136L18 579Q18 655 55 704Q92 753 173 753L200 753Q247 753 279 739Q311 725 326.50 699Q342 673 348 645Q354 617 354 580L354 498L224 498L224 581Q224 606 216.50 617Q209 628 190 628Q157 628 157 581L157 167Q157 119 193 119Q232 119 232 165L232 325L183 325L183 450L360 450L360 0L279 0Q269 42 259 71Q250 55 244.50 46.50Q239 38 225 22Q211 6 191.50-2Q172-10 149-10Z"  horiz-adv-x="378" vert-adv-y="1000"  />

      
      <glyph glyph-name="uni011D" unicode="&#x011D;" d="M196-65L196 60Q158-10 109-10Q69-10 43 19Q17 48 17 95L17 416Q17 474 39 507.50Q61 541 102 541L103 541Q156 541 198 473L198 538L324 538L324-74Q324-125 292-160Q260-195 179-195L161-195Q22-195 22-97L22-25L145-25L145-69Q145-81 149.50-86.50Q154-92 167-92L172-92Q186-92 191-86Q196-80 196-65M196 129L196 399Q196 433 171 433Q147 433 147 400L147 128Q147 96 171 96Q196 96 196 129M222 700L284 564L193 564L169 626L144 564L55 564L116 700L222 700Z"  horiz-adv-x="342" vert-adv-y="1000"  />

      
      <glyph glyph-name="uni011E" unicode="&#x011E;" d="M149-10L139-10Q83-10 50.50 32Q18 74 18 136L18 579Q18 655 55 704Q92 753 173 753L200 753Q247 753 279 739Q311 725 326.50 699Q342 673 348 645Q354 617 354 580L354 498L224 498L224 581Q224 606 216.50 617Q209 628 190 628Q157 628 157 581L157 167Q157 119 193 119Q232 119 232 165L232 325L183 325L183 450L360 450L360 0L279 0Q269 42 259 71Q250 55 244.50 46.50Q239 38 225 22Q211 6 191.50-2Q172-10 149-10M190 768L186 768Q139 768 109 796Q79 824 79 871L79 876L164 876L164 873Q164 847 187 847L189 847Q212 847 212 873L212 876L296 876L296 871Q296 824 265 796Q234 768 190 768Z"  horiz-adv-x="378" vert-adv-y="1000"  />

      
      <glyph glyph-name="uni011F" unicode="&#x011F;" d="M196-65L196 60Q158-10 109-10Q69-10 43 19Q17 48 17 95L17 416Q17 474 39 507.50Q61 541 102 541L103 541Q156 541 198 473L198 538L324 538L324-74Q324-125 292-160Q260-195 179-195L161-195Q22-195 22-97L22-25L145-25L145-69Q145-81 149.50-86.50Q154-92 167-92L172-92Q186-92 191-86Q196-80 196-65M196 129L196 399Q196 433 171 433Q147 433 147 400L147 128Q147 96 171 96Q196 96 196 129M172 563L169 563Q120 563 90.50 591Q61 619 61 672L61 680L146 680L146 674Q146 641 170 641L171 641Q195 641 195 674L195 680L278 680L278 672Q278 620 247.50 591.50Q217 563 172 563Z"  horiz-adv-x="342" vert-adv-y="1000"  />

      
      <glyph glyph-name="uni0120" unicode="&#x0120;" d="M256 896L256 771L128 771L128 896L256 896M149-10L139-10Q83-10 50.50 32Q18 74 18 136L18 579Q18 655 55 704Q92 753 173 753L200 753Q247 753 279 739Q311 725 326.50 699Q342 673 348 645Q354 617 354 580L354 498L224 498L224 581Q224 606 216.50 617Q209 628 190 628Q157 628 157 581L157 167Q157 119 193 119Q232 119 232 165L232 325L183 325L183 450L360 450L360 0L279 0Q269 42 259 71Q250 55 244.50 46.50Q239 38 225 22Q211 6 191.50-2Q172-10 149-10Z"  horiz-adv-x="378" vert-adv-y="1000"  />

      
      <glyph glyph-name="uni0121" unicode="&#x0121;" d="M196-65L196 60Q158-10 109-10Q69-10 43 19Q17 48 17 95L17 416Q17 474 39 507.50Q61 541 102 541L103 541Q156 541 198 473L198 538L324 538L324-74Q324-125 292-160Q260-195 179-195L161-195Q22-195 22-97L22-25L145-25L145-69Q145-81 149.50-86.50Q154-92 167-92L172-92Q186-92 191-86Q196-80 196-65M196 129L196 399Q196 433 171 433Q147 433 147 400L147 128Q147 96 171 96Q196 96 196 129M234 690L234 564L106 564L106 690L234 690Z"  horiz-adv-x="342" vert-adv-y="1000"  />

      
      <glyph glyph-name="uni0122" unicode="&#x0122;" d="M149-10L139-10Q83-10 50.50 32Q18 74 18 136L18 579Q18 655 55 704Q92 753 173 753L200 753Q247 753 279 739Q311 725 326.50 699Q342 673 348 645Q354 617 354 580L354 498L224 498L224 581Q224 606 216.50 617Q209 628 190 628Q157 628 157 581L157 167Q157 119 193 119Q232 119 232 165L232 325L183 325L183 450L360 450L360 0L279 0Q269 42 259 71Q250 55 244.50 46.50Q239 38 225 22Q211 6 191.50-2Q172-10 149-10M221-203L170-203Q179-182 184-136L141-136L141-26L243-26L243-96Q243-156 221-203Z"  horiz-adv-x="378" vert-adv-y="1000"  />

      
      <glyph glyph-name="uni0123" unicode="&#x0123;" d="M196-65L196 60Q158-10 109-10Q69-10 43 19Q17 48 17 95L17 416Q17 474 39 507.50Q61 541 102 541L103 541Q156 541 198 473L198 538L324 538L324-74Q324-125 292-160Q260-195 179-195L161-195Q22-195 22-97L22-25L145-25L145-69Q145-81 149.50-86.50Q154-92 167-92L172-92Q186-92 191-86Q196-80 196-65M196 129L196 399Q196 433 171 433Q147 433 147 400L147 128Q147 96 171 96Q196 96 196 129M139 742L192 742Q181 706 178 673L220 673L220 564L117 564L117 633Q117 695 139 742Z"  horiz-adv-x="342" vert-adv-y="1000"  />

      
      <glyph glyph-name="uni0124" unicode="&#x0124;" d="M154 314L154 0L21 0L21 744L154 744L154 460L224 460L224 744L357 744L357 0L224 0L224 314L154 314M240 885L306 770L217 770L189 817L162 770L73 770L138 885L240 885Z"  horiz-adv-x="378" vert-adv-y="1000"  />

      
      <glyph glyph-name="uni0125" unicode="&#x0125;" d="M18 0L18 744L146 744L146 476Q188 540 242 540L247 540Q283 540 304.50 516.50Q326 493 326 456L326 0L197 0L197 398Q197 428 172 428Q146 428 146 394L146 0L18 0M211 885L277 770L188 770L160 817L133 770L44 770L109 885L211 885Z"  horiz-adv-x="344" vert-adv-y="1000"  />

      
      <glyph glyph-name="uni0126" unicode="&#x0126;" d="M-4 550L-4 651L383 651L383 550L-4 550M154 314L154 0L21 0L21 744L154 744L154 460L224 460L224 744L357 744L357 0L224 0L224 314L154 314Z"  horiz-adv-x="378" vert-adv-y="1000"  />

      
      <glyph glyph-name="uni0127" unicode="&#x0127;" d="M-14 583L-14 674L221 674L221 583L-14 583M18 0L18 744L146 744L146 476Q188 540 242 540L247 540Q283 540 304.50 516.50Q326 493 326 456L326 0L197 0L197 398Q197 428 172 428Q146 428 146 394L146 0L18 0Z"  horiz-adv-x="344" vert-adv-y="1000"  />

      
      <glyph glyph-name="uni0128" unicode="&#x0128;" d="M154 744L154 0L21 0L21 744L154 744M85 787Q63 796 60 796Q52 796 52 785L52 769L-20 769L-20 803Q-20 880 37 880Q62 880 91 867Q112 857 118 857Q124 857 124 867L124 883L196 883L196 849Q196 810 179 791.50Q162 773 139 773Q114 773 85 787Z"  horiz-adv-x="175" vert-adv-y="1000"  />

      
      <glyph glyph-name="uni0129" unicode="&#x0129;" d="M112 678L180 678L180 612Q180 590 167.50 577Q155 564 137 564Q116 564 78 584Q64 592 59 592Q54 592 54 581L54 563L-14 563L-14 620Q-14 676 30 676Q53 676 89 658Q101 651 107 651Q112 651 112 661L112 678M147 538L147 0L19 0L19 538L147 538Z"  horiz-adv-x="164" vert-adv-y="1000"  />

      
      <glyph glyph-name="uni012A" unicode="&#x012A;" d="M154 744L154 0L21 0L21 744L154 744M-9 777L-9 865L184 865L184 777L-9 777Z"  horiz-adv-x="175" vert-adv-y="1000"  />

      
      <glyph glyph-name="uni012B" unicode="&#x012B;" d="M-4 576L-4 664L168 664L168 576L-4 576M146 538L146 0L18 0L18 538L146 538Z"  horiz-adv-x="164" vert-adv-y="1000"  />

      
      <glyph glyph-name="uni012C" unicode="&#x012C;" d="M154 744L154 0L21 0L21 744L154 744M90 767L86 767Q39 767 9 795Q-21 823-21 870L-21 875L64 875L64 872Q64 846 87 846L89 846Q112 846 112 872L112 875L196 875L196 870Q196 823 165 795Q134 767 90 767Z"  horiz-adv-x="175" vert-adv-y="1000"  />

      
      <glyph glyph-name="uni012D" unicode="&#x012D;" d="M85 563L81 563Q-14 563-14 657L-14 680L66 680L66 664Q66 641 83 641Q100 641 100 664L100 680L178 680L178 657Q178 614 155.50 588.50Q133 563 85 563M146 538L146 0L18 0L18 538L146 538Z"  horiz-adv-x="164" vert-adv-y="1000"  />

      
      <glyph glyph-name="uni012E" unicode="&#x012E;" d="M154 744L154 0L21 0L21 744L154 744M18-124L18-109Q18-83 36.50-58Q55-33 92 0L154 0Q110-55 110-84L110-88Q110-108 136-108L154-108L154-188L96-188Q62-188 40-171.50Q18-155 18-124Z"  horiz-adv-x="175" vert-adv-y="1000"  />

      
      <glyph glyph-name="uni012F" unicode="&#x012F;" d="M146 538L146 0L18 0L18 538L146 538M146 690L146 564L18 564L18 690L146 690M10-124L10-109Q10-83 28.50-58Q47-33 84 0L146 0Q102-55 102-84L102-88Q102-108 128-108L146-108L146-188L88-188Q54-188 32-171.50Q10-155 10-124Z"  horiz-adv-x="164" vert-adv-y="1000"  />

      
      <glyph glyph-name="uni0130" unicode="&#x0130;" d="M154 744L154 0L21 0L21 744L154 744M152 896L152 770L24 770L24 896L152 896Z"  horiz-adv-x="175" vert-adv-y="1000"  />

      
      <glyph glyph-name="uni0131" unicode="&#x0131;" d="M146 538L146 0L18 0L18 538L146 538Z"  horiz-adv-x="164" vert-adv-y="1000"  />

      
      <glyph glyph-name="uni0132" unicode="&#x0132;" d="M154 744L154 0L21 0L21 744L154 744M184 327L312 327L312 155Q312 122 338 122L342 122Q367 122 367 155L367 744L505 744L505 151Q505 74 468 33Q431-8 364-8L320-8Q252-8 218 26.50Q184 61 184 137L184 327Z"  horiz-adv-x="525" vert-adv-y="1000"  />

      
      <glyph glyph-name="uni0133" unicode="&#x0133;" d="M146 538L146 0L18 0L18 538L146 538M146 690L146 564L18 564L18 690L146 690M307 690L307 564L179 564L179 690L307 690M109-69L161-69Q171-69 175-64.50Q179-60 179-48L179 538L307 538L307-116Q307-146 287-167Q267-188 233-188L109-188L109-69Z"  horiz-adv-x="325" vert-adv-y="1000"  />

      
      <glyph glyph-name="uni0134" unicode="&#x0134;" d="M13 327L141 327L141 155Q141 122 167 122L171 122Q196 122 196 155L196 744L334 744L334 151Q334 74 297 33Q260-8 193-8L149-8Q81-8 47 26.50Q13 61 13 137L13 327M312 885L378 770L289 770L261 817L234 770L145 770L210 885L312 885Z"  horiz-adv-x="354" vert-adv-y="1000"  />

      
      <glyph glyph-name="uni0135" unicode="&#x0135;" d="M134 700L186 564L100 564L81 630L61 564L-24 564L28 700L134 700M-51-69L1-69Q11-69 15-64.50Q19-60 19-48L19 538L147 538L147-116Q147-146 127-167Q107-188 73-188L-51-188L-51-69Z"  horiz-adv-x="165" vert-adv-y="1000"  />

      
      <glyph glyph-name="uni0136" unicode="&#x0136;" d="M154 315L154 0L21 0L21 744L154 744L154 458L241 744L372 744L267 406L383 0L243 0L154 315M229-203L178-203Q187-182 192-136L149-136L149-26L251-26L251-96Q251-156 229-203Z"  horiz-adv-x="376" vert-adv-y="1000"  />

      
      <glyph glyph-name="uni0137" unicode="&#x0137;" d="M146 351L221 538L343 538L248 312L350 0L223 0L146 239L146 0L18 0L18 744L146 744L146 351M213-203L162-203Q171-182 176-136L133-136L133-26L235-26L235-96Q235-156 213-203Z"  horiz-adv-x="346" vert-adv-y="1000"  />

      
      <glyph glyph-name="uni0139" unicode="&#x0139;" d="M21 744L154 744L154 134L295 134L295 0L21 0L21 744M36 770L79 885L185 885L140 770L36 770Z"  horiz-adv-x="304" vert-adv-y="1000"  />

      
      <glyph glyph-name="uni013A" unicode="&#x013A;" d="M146 744L146 0L18 0L18 744L146 744M30 770L73 885L179 885L134 770L30 770Z"  horiz-adv-x="164" vert-adv-y="1000"  />

      
      <glyph glyph-name="uni013B" unicode="&#x013B;" d="M21 744L154 744L154 134L295 134L295 0L21 0L21 744M190-203L139-203Q148-182 153-136L110-136L110-26L212-26L212-96Q212-156 190-203Z"  horiz-adv-x="304" vert-adv-y="1000"  />

      
      <glyph glyph-name="uni013C" unicode="&#x013C;" d="M146 744L146 0L18 0L18 744L146 744M114-203L63-203Q72-182 77-136L34-136L34-26L136-26L136-96Q136-156 114-203Z"  horiz-adv-x="164" vert-adv-y="1000"  />

      
      <glyph glyph-name="uni013D" unicode="&#x013D;" d="M171 594L177 744L264 744L252 594L171 594M21 744L154 744L154 134L295 134L295 0L21 0L21 744Z"  horiz-adv-x="304" vert-adv-y="1000"  />

      
      <glyph glyph-name="uni013E" unicode="&#x013E;" d="M146 744L146 0L18 0L18 744L146 744M163 594L169 744L256 744L244 594L163 594Z"  horiz-adv-x="164" vert-adv-y="1000"  />

      
      <glyph glyph-name="uni013F" unicode="&#x013F;" d="M299 458L299 314L181 314L181 458L299 458M21 744L154 744L154 134L295 134L295 0L21 0L21 744Z"  horiz-adv-x="311" vert-adv-y="1000"  />

      
      <glyph glyph-name="uni0140" unicode="&#x0140;" d="M285 458L285 314L167 314L167 458L285 458M146 744L146 0L18 0L18 744L146 744Z"  horiz-adv-x="291" vert-adv-y="1000"  />

      
      <glyph glyph-name="uni0141" unicode="&#x0141;" d="M36 744L169 744L169 440L264 507L264 397L169 332L169 134L310 134L310 0L36 0L36 241L3 219L3 325L36 348L36 744Z"  horiz-adv-x="320" vert-adv-y="1000"  />

      
      <glyph glyph-name="uni0142" unicode="&#x0142;" d="M158 420L158 0L30 0L30 331L3 312L3 412L30 431L30 744L158 744L158 522L186 542L186 440L158 420Z"  horiz-adv-x="189" vert-adv-y="1000"  />

      
      <glyph glyph-name="uni0143" unicode="&#x0143;" d="M21 744L146 744L237 364L237 744L355 744L355 0L242 0L139 408L139 0L21 0L21 744M137 770L180 885L286 885L241 770L137 770Z"  horiz-adv-x="376" vert-adv-y="1000"  />

      
      <glyph glyph-name="uni0144" unicode="&#x0144;" d="M18 0L18 538L145 538L145 473Q190 540 242 540L249 540Q289 540 307.50 511Q326 482 326 450L326 0L197 0L197 396Q197 428 172 428Q146 428 146 392L146 0L18 0M120 564L162 700L267 700L223 564L120 564Z"  horiz-adv-x="344" vert-adv-y="1000"  />

      
      <glyph glyph-name="uni0145" unicode="&#x0145;" d="M21 744L146 744L237 364L237 744L355 744L355 0L242 0L139 408L139 0L21 0L21 744M218-203L167-203Q176-182 181-136L138-136L138-26L240-26L240-96Q240-156 218-203Z"  horiz-adv-x="376" vert-adv-y="1000"  />

      
      <glyph glyph-name="uni0146" unicode="&#x0146;" d="M18 0L18 538L145 538L145 473Q190 540 242 540L249 540Q289 540 307.50 511Q326 482 326 450L326 0L197 0L197 396Q197 428 172 428Q146 428 146 392L146 0L18 0M203-203L152-203Q161-182 166-136L123-136L123-26L225-26L225-96Q225-156 203-203Z"  horiz-adv-x="344" vert-adv-y="1000"  />

      
      <glyph glyph-name="uni0147" unicode="&#x0147;" d="M21 744L146 744L237 364L237 744L355 744L355 0L242 0L139 408L139 0L21 0L21 744M139 770L73 885L163 885L190 837L217 885L306 885L240 770L139 770Z"  horiz-adv-x="376" vert-adv-y="1000"  />

      
      <glyph glyph-name="uni0148" unicode="&#x0148;" d="M18 0L18 538L145 538L145 473Q190 540 242 540L249 540Q289 540 307.50 511Q326 482 326 450L326 0L197 0L197 396Q197 428 172 428Q146 428 146 392L146 0L18 0M119 564L57 700L148 700L172 638L197 700L286 700L224 564L119 564Z"  horiz-adv-x="344" vert-adv-y="1000"  />

      
      <glyph glyph-name="uni0149" unicode="&#x0149;" d="M110 0L110 538L237 538L237 473Q282 540 334 540L341 540Q381 540 399.50 511Q418 482 418 450L418 0L289 0L289 396Q289 428 264 428Q238 428 238 392L238 0L110 0M89 524L26 524Q44 579 45 616L2 616L2 744L113 744L113 641Q113 580 89 524Z"  horiz-adv-x="436" vert-adv-y="1000"  />

      
      <glyph glyph-name="uni014A" unicode="&#x014A;" d="M276-188L180-188L180-71L219-71Q242-71 242-44L242 0L139 412L139 0L21 0L21 744L146 744L239 340L239 744L355 744L355-101Q355-188 276-188Z"  horiz-adv-x="376" vert-adv-y="1000"  />

      
      <glyph glyph-name="uni014B" unicode="&#x014B;" d="M197-48L197 396Q197 428 172 428Q146 428 146 392L146 0L18 0L18 538L142 538L142 470Q189 540 239 540L251 540Q290 540 308 511.50Q326 483 326 450L326-116Q326-146 306-167Q286-188 252-188L157-188L157-69L179-69Q189-69 193-64.50Q197-60 197-48Z"  horiz-adv-x="344" vert-adv-y="1000"  />

      
      <glyph glyph-name="uni014C" unicode="&#x014C;" d="M367 564L367 170Q367 87 325 38Q283-11 209-11L179-11Q100-11 59 35.50Q18 82 18 170L18 563Q18 753 178 753L208 753Q367 753 367 564M228 166L228 574Q228 623 193 623Q157 623 157 574L157 166Q157 122 194 122Q228 122 228 166M96 778L96 866L289 866L289 778L96 778Z"  horiz-adv-x="385" vert-adv-y="1000"  />

      
      <glyph glyph-name="uni014D" unicode="&#x014D;" d="M15 142L15 397Q15 469 52 508.50Q89 548 155 548L185 548Q252 548 289 509Q326 470 326 399L326 144Q326 77 288 33.50Q250-10 185-10L155-10Q84-10 49.50 31.50Q15 73 15 142M144 400L144 144Q144 106 170 106Q197 106 197 144L197 400Q197 437 170 437Q144 437 144 400M75 578L75 665L266 665L266 578L75 578Z"  horiz-adv-x="341" vert-adv-y="1000"  />

      
      <glyph glyph-name="uni014E" unicode="&#x014E;" d="M367 564L367 170Q367 87 325 38Q283-11 209-11L179-11Q100-11 59 35.50Q18 82 18 170L18 563Q18 753 178 753L208 753Q367 753 367 564M228 166L228 574Q228 623 193 623Q157 623 157 574L157 166Q157 122 194 122Q228 122 228 166M195 768L191 768Q144 768 114 796Q84 824 84 871L84 876L169 876L169 873Q169 847 192 847L194 847Q217 847 217 873L217 876L301 876L301 871Q301 824 270 796Q239 768 195 768Z"  horiz-adv-x="385" vert-adv-y="1000"  />

      
      <glyph glyph-name="uni014F" unicode="&#x014F;" d="M15 142L15 397Q15 469 52 508.50Q89 548 155 548L185 548Q252 548 289 509Q326 470 326 399L326 144Q326 77 288 33.50Q250-10 185-10L155-10Q84-10 49.50 31.50Q15 73 15 142M144 400L144 144Q144 106 170 106Q197 106 197 144L197 400Q197 437 170 437Q144 437 144 400M173 565L170 565Q121 565 91.50 593Q62 621 62 674L62 682L147 682L147 676Q147 643 171 643L172 643Q196 643 196 676L196 682L279 682L279 674Q279 622 248.50 593.50Q218 565 173 565Z"  horiz-adv-x="341" vert-adv-y="1000"  />

      
      <glyph glyph-name="uni0150" unicode="&#x0150;" d="M95 771L119 885L209 885L182 771L95 771M206 771L232 885L321 885L292 771L206 771M367 564L367 170Q367 87 325 38Q283-11 209-11L179-11Q100-11 59 35.50Q18 82 18 170L18 563Q18 753 178 753L208 753Q367 753 367 564M228 166L228 574Q228 623 193 623Q157 623 157 574L157 166Q157 122 194 122Q228 122 228 166Z"  horiz-adv-x="385" vert-adv-y="1000"  />

      
      <glyph glyph-name="uni0151" unicode="&#x0151;" d="M80 566L104 700L192 700L166 566L80 566M189 566L214 700L302 700L274 566L189 566M15 142L15 397Q15 469 52 508.50Q89 548 155 548L185 548Q252 548 289 509Q326 470 326 399L326 144Q326 77 288 33.50Q250-10 185-10L155-10Q84-10 49.50 31.50Q15 73 15 142M144 400L144 144Q144 106 170 106Q197 106 197 144L197 400Q197 437 170 437Q144 437 144 400Z"  horiz-adv-x="341" vert-adv-y="1000"  />

      
      <glyph glyph-name="uni0152" unicode="&#x0152;" d="M18 172L18 571Q18 653 48.50 702Q79 751 140 751Q198 751 233 701L233 744L499 744L499 612L361 612L361 451L468 451L468 316L361 316L361 134L509 134L509 0L233 0L233 45Q203-10 136-10Q80-10 49 35.50Q18 81 18 172M228 176L228 569Q228 623 193 623Q157 623 157 569L157 176Q157 122 193 122Q228 122 228 176Z"  horiz-adv-x="518" vert-adv-y="1000"  />

      
      <glyph glyph-name="uni0153" unicode="&#x0153;" d="M491 252L320 252L320 134Q320 102 345 102Q369 102 369 134L369 215L491 215L491 116Q491 55 453 21.50Q415-12 356-12L329-12Q306-12 284-1.50Q262 9 252 21Q221-10 177-10L153-10Q84-10 49.50 31.50Q15 73 15 142L15 397Q15 470 50.50 509Q86 548 152 548L178 548Q232 548 257 517Q282 548 333 548L360 548Q491 548 491 410L491 252M144 400L144 144Q144 106 170 106Q197 106 197 144L197 400Q197 437 170 437Q144 437 144 400M320 412L320 348L372 348L372 412Q372 431 367 439.50Q362 448 346 448Q330 448 325 439.50Q320 431 320 412Z"  horiz-adv-x="505" vert-adv-y="1000"  />

      
      <glyph glyph-name="uni0154" unicode="&#x0154;" d="M154 629L154 441L180 441Q201 441 209 450.50Q217 460 217 486L217 587Q217 612 210.50 620.50Q204 629 184 629L154 629M154 318L154 0L21 0L21 744L231 744Q353 744 353 620L353 501Q353 427 294 401Q315 393 333 371.50Q351 350 351 313L351 60Q351 25 362 5L362 0L229 0Q217 14 217 57L217 274Q217 300 209.50 309Q202 318 182 318L154 318M126 770L169 885L275 885L230 770L126 770Z"  horiz-adv-x="369" vert-adv-y="1000"  />

      
      <glyph glyph-name="uni0155" unicode="&#x0155;" d="M145 538L145 471Q154 496 175 518.50Q196 541 230 541L236 541Q297 541 297 475L297 280L178 280L178 403Q178 418 174.50 423.50Q171 429 162 429Q146 429 146 403L146 0L18 0L18 538L145 538M112 564L154 700L259 700L215 564L112 564Z"  horiz-adv-x="308" vert-adv-y="1000"  />

      
      <glyph glyph-name="uni0156" unicode="&#x0156;" d="M154 629L154 441L180 441Q201 441 209 450.50Q217 460 217 486L217 587Q217 612 210.50 620.50Q204 629 184 629L154 629M154 318L154 0L21 0L21 744L231 744Q353 744 353 620L353 501Q353 427 294 401Q315 393 333 371.50Q351 350 351 313L351 60Q351 25 362 5L362 0L229 0Q217 14 217 57L217 274Q217 300 209.50 309Q202 318 182 318L154 318M218-203L167-203Q176-182 181-136L138-136L138-26L240-26L240-96Q240-156 218-203Z"  horiz-adv-x="369" vert-adv-y="1000"  />

      
      <glyph glyph-name="uni0157" unicode="&#x0157;" d="M145 538L145 471Q154 496 175 518.50Q196 541 230 541L236 541Q297 541 297 475L297 280L178 280L178 403Q178 418 174.50 423.50Q171 429 162 429Q146 429 146 403L146 0L18 0L18 538L145 538M110-203L59-203Q68-182 73-136L30-136L30-26L132-26L132-96Q132-156 110-203Z"  horiz-adv-x="308" vert-adv-y="1000"  />

      
      <glyph glyph-name="uni0158" unicode="&#x0158;" d="M154 629L154 441L180 441Q201 441 209 450.50Q217 460 217 486L217 587Q217 612 210.50 620.50Q204 629 184 629L154 629M154 318L154 0L21 0L21 744L231 744Q353 744 353 620L353 501Q353 427 294 401Q315 393 333 371.50Q351 350 351 313L351 60Q351 25 362 5L362 0L229 0Q217 14 217 57L217 274Q217 300 209.50 309Q202 318 182 318L154 318M127 770L61 885L151 885L178 837L205 885L294 885L228 770L127 770Z"  horiz-adv-x="369" vert-adv-y="1000"  />

      
      <glyph glyph-name="uni0159" unicode="&#x0159;" d="M145 538L145 471Q154 496 175 518.50Q196 541 230 541L236 541Q297 541 297 475L297 280L178 280L178 403Q178 418 174.50 423.50Q171 429 162 429Q146 429 146 403L146 0L18 0L18 538L145 538M112 564L50 700L141 700L165 638L190 700L279 700L217 564L112 564Z"  horiz-adv-x="308" vert-adv-y="1000"  />

      
      <glyph glyph-name="uni015A" unicode="&#x015A;" d="M130 771L173 885L279 885L234 771L130 771M168 753L195 753Q272 753 305 718Q338 683 338 607L338 507L210 507L210 600Q210 639 181 639Q152 639 152 599L152 582Q152 532 193 486L269 401Q317 347 333.50 304.50Q350 262 350 210L350 175Q350 88 309.50 39.50Q269-9 188-9L162-9Q10-9 10 145L10 279L141 279L141 160Q141 115 175 115Q208 115 208 169L208 183Q208 225 200.50 246.50Q193 268 165 299L88 384Q48 427 32.50 471Q17 515 17 573L17 605Q17 676 57 714.50Q97 753 168 753Z"  horiz-adv-x="359" vert-adv-y="1000"  />

      
      <glyph glyph-name="uni015B" unicode="&#x015B;" d="M103 566L145 700L250 700L206 566L103 566M289 446L289 373L175 373L175 429Q175 457 154 457Q133 457 133 429L133 418Q133 400 137.50 390Q142 380 156 366L227 296Q267 256 281.50 223.50Q296 191 296 147L296 129Q296 69 262.50 30Q229-9 163-9L137-9Q71-9 39 23.50Q7 56 7 108L7 196L125 196L125 124Q125 94 148 94L149 94Q170 94 170 125L170 137Q170 177 142 204L74 269Q39 303 26.50 335Q14 367 14 411L14 428Q14 484 46 516Q78 548 140 548L167 548Q289 548 289 446Z"  horiz-adv-x="302" vert-adv-y="1000"  />

      
      <glyph glyph-name="uni015C" unicode="&#x015C;" d="M234 885L300 771L211 771L183 817L156 771L67 771L132 885L234 885M168 753L195 753Q272 753 305 718Q338 683 338 607L338 507L210 507L210 600Q210 639 181 639Q152 639 152 599L152 582Q152 532 193 486L269 401Q317 347 333.50 304.50Q350 262 350 210L350 175Q350 88 309.50 39.50Q269-9 188-9L162-9Q10-9 10 145L10 279L141 279L141 160Q141 115 175 115Q208 115 208 169L208 183Q208 225 200.50 246.50Q193 268 165 299L88 384Q48 427 32.50 471Q17 515 17 573L17 605Q17 676 57 714.50Q97 753 168 753Z"  horiz-adv-x="359" vert-adv-y="1000"  />

      
      <glyph glyph-name="uni015D" unicode="&#x015D;" d="M208 700L270 566L179 566L155 626L130 566L41 566L102 700L208 700M289 446L289 373L175 373L175 429Q175 457 154 457Q133 457 133 429L133 418Q133 400 137.50 390Q142 380 156 366L227 296Q267 256 281.50 223.50Q296 191 296 147L296 129Q296 69 262.50 30Q229-9 163-9L137-9Q71-9 39 23.50Q7 56 7 108L7 196L125 196L125 124Q125 94 148 94L149 94Q170 94 170 125L170 137Q170 177 142 204L74 269Q39 303 26.50 335Q14 367 14 411L14 428Q14 484 46 516Q78 548 140 548L167 548Q289 548 289 446Z"  horiz-adv-x="302" vert-adv-y="1000"  />

      
      <glyph glyph-name="uni015E" unicode="&#x015E;" d="M168 753L195 753Q272 753 305 718Q338 683 338 607L338 507L210 507L210 600Q210 639 181 639Q152 639 152 599L152 582Q152 532 193 486L269 401Q317 347 333.50 304.50Q350 262 350 210L350 175Q350 88 309.50 39.50Q269-9 188-9L162-9Q10-9 10 145L10 279L141 279L141 160Q141 115 175 115Q208 115 208 169L208 183Q208 225 200.50 246.50Q193 268 165 299L88 384Q48 427 32.50 471Q17 515 17 573L17 605Q17 676 57 714.50Q97 753 168 753M165-188L104-188L104-125L154-125Q176-125 176-108L176-107Q176-92 154-92L119-92L119 0L179 0L179-36L182-36Q261-39 261-108L261-111Q261-149 235-168.50Q209-188 165-188Z"  horiz-adv-x="359" vert-adv-y="1000"  />

      
      <glyph glyph-name="uni015F" unicode="&#x015F;" d="M289 446L289 373L175 373L175 429Q175 457 154 457Q133 457 133 429L133 418Q133 400 137.50 390Q142 380 156 366L227 296Q267 256 281.50 223.50Q296 191 296 147L296 129Q296 69 262.50 30Q229-9 163-9L137-9Q71-9 39 23.50Q7 56 7 108L7 196L125 196L125 124Q125 94 148 94L149 94Q170 94 170 125L170 137Q170 177 142 204L74 269Q39 303 26.50 335Q14 367 14 411L14 428Q14 484 46 516Q78 548 140 548L167 548Q289 548 289 446M138-188L77-188L77-125L127-125Q149-125 149-108L149-107Q149-92 127-92L92-92L92 0L152 0L152-36L155-36Q234-39 234-108L234-111Q234-149 208-168.50Q182-188 138-188Z"  horiz-adv-x="302" vert-adv-y="1000"  />

      
      <glyph glyph-name="uni0160" unicode="&#x0160;" d="M168 753L195 753Q272 753 305 718Q338 683 338 607L338 507L210 507L210 600Q210 639 181 639Q152 639 152 599L152 582Q152 532 193 486L269 401Q317 347 333.50 304.50Q350 262 350 210L350 175Q350 88 309.50 39.50Q269-9 188-9L162-9Q10-9 10 145L10 279L141 279L141 160Q141 115 175 115Q208 115 208 169L208 183Q208 225 200.50 246.50Q193 268 165 299L88 384Q48 427 32.50 471Q17 515 17 573L17 605Q17 676 57 714.50Q97 753 168 753M131 771L65 886L155 886L182 838L209 886L298 886L232 771L131 771Z"  horiz-adv-x="359" vert-adv-y="1000"  />

      
      <glyph glyph-name="uni0161" unicode="&#x0161;" d="M289 446L289 373L175 373L175 429Q175 457 154 457Q133 457 133 429L133 418Q133 400 137.50 390Q142 380 156 366L227 296Q267 256 281.50 223.50Q296 191 296 147L296 129Q296 69 262.50 30Q229-9 163-9L137-9Q71-9 39 23.50Q7 56 7 108L7 196L125 196L125 124Q125 94 148 94L149 94Q170 94 170 125L170 137Q170 177 142 204L74 269Q39 303 26.50 335Q14 367 14 411L14 428Q14 484 46 516Q78 548 140 548L167 548Q289 548 289 446M102 566L40 702L131 702L155 640L180 702L269 702L207 566L102 566Z"  horiz-adv-x="302" vert-adv-y="1000"  />

      
      <glyph glyph-name="uni0162" unicode="&#x0162;" d="M199-203L148-203Q157-182 162-136L119-136L119-26L221-26L221-96Q221-156 199-203M8 744L331 744L331 613L236 613L236 0L103 0L103 613L8 613L8 744Z"  horiz-adv-x="339" vert-adv-y="1000"  />

      
      <glyph glyph-name="uni0163" unicode="&#x0163;" d="M256 0L128 0Q102 0 84.50 18.50Q67 37 67 66L67 419L6 419L6 538L67 538L67 716L194 716L194 538L256 538L256 419L194 419L194 143Q194 131 197.50 126Q201 121 213 121L256 121L256 0M200-203L149-203Q158-182 163-136L120-136L120-26L222-26L222-96Q222-156 200-203Z"  horiz-adv-x="267" vert-adv-y="1000"  />

      
      <glyph glyph-name="uni0164" unicode="&#x0164;" d="M8 744L331 744L331 613L236 613L236 0L103 0L103 613L8 613L8 744M119 770L53 885L143 885L170 837L197 885L286 885L220 770L119 770Z"  horiz-adv-x="339" vert-adv-y="1000"  />

      
      </font>
</defs>
</svg>
